<svg xmlns="http://www.w3.org/2000/svg" viewBox="0 0 200 200">
  <rect width="200" height="200" fill="white"/>
  <!-- QR Code pattern for WhatsApp link -->
  <g fill="black">
    <!-- Corner squares -->
    <rect x="10" y="10" width="60" height="60" fill="none" stroke="black" stroke-width="10"/>
    <rect x="25" y="25" width="30" height="30"/>
    
    <rect x="130" y="10" width="60" height="60" fill="none" stroke="black" stroke-width="10"/>
    <rect x="145" y="145" width="30" height="30"/>
    
    <rect x="10" y="130" width="60" height="60" fill="none" stroke="black" stroke-width="10"/>
    <rect x="25" y="145" width="30" height="30"/>
    
    <!-- Data pattern -->
    <rect x="90" y="10" width="10" height="10"/>
    <rect x="110" y="10" width="10" height="10"/>
    <rect x="90" y="30" width="10" height="10"/>
    <rect x="110" y="30" width="10" height="10"/>
    <rect x="90" y="50" width="10" height="10"/>
    <rect x="110" y="50" width="10" height="10"/>
    
    <rect x="10" y="90" width="10" height="10"/>
    <rect x="30" y="90" width="10" height="10"/>
    <rect x="50" y="90" width="10" height="10"/>
    <rect x="70" y="90" width="10" height="10"/>
    <rect x="90" y="90" width="10" height="10"/>
    <rect x="110" y="90" width="10" height="10"/>
    <rect x="130" y="90" width="10" height="10"/>
    <rect x="150" y="90" width="10" height="10"/>
    <rect x="170" y="90" width="10" height="10"/>
    <rect x="190" y="90" width="10" height="10"/>
    
    <!-- More data pattern -->
    <rect x="90" y="110" width="10" height="10"/>
    <rect x="110" y="110" width="10" height="10"/>
    <rect x="130" y="110" width="10" height="10"/>
    <rect x="150" y="110" width="10" height="10"/>
    <rect x="170" y="110" width="10" height="10"/>
    <rect x="190" y="110" width="10" height="10"/>
    
    <rect x="90" y="130" width="10" height="10"/>
    <rect x="110" y="130" width="10" height="10"/>
    <rect x="190" y="130" width="10" height="10"/>
    
    <rect x="90" y="150" width="10" height="10"/>
    <rect x="110" y="150" width="10" height="10"/>
    <rect x="190" y="150" width="10" height="10"/>
    
    <rect x="90" y="170" width="10" height="10"/>
    <rect x="110" y="170" width="10" height="10"/>
    <rect x="130" y="170" width="10" height="10"/>
    <rect x="150" y="170" width="10" height="10"/>
    <rect x="170" y="170" width="10" height="10"/>
    <rect x="190" y="170" width="10" height="10"/>
    
    <rect x="90" y="190" width="10" height="10"/>
    <rect x="110" y="190" width="10" height="10"/>
    <rect x="130" y="190" width="10" height="10"/>
    <rect x="150" y="190" width="10" height="10"/>
    <rect x="170" y="190" width="10" height="10"/>
    <rect x="190" y="190" width="10" height="10"/>
  </g>
</svg>