<?xml version="1.0" standalone="no"?>
<svg xmlns="http://www.w3.org/2000/svg" width="500" height="500"><defs><clipPath id="clip-path-dot-color"><circle cx="30" cy="120" r="5" transform="rotate(0,30,120)"/><path d="M 25 135v 10h 5a 5 5, 0, 0, 0, 0 -10" transform="rotate(180,30,140)"/><path d="M 25 165v 10h 5a 5 5, 0, 0, 0, 0 -10" transform="rotate(180,30,170)"/><path d="M 25 195v 10h 5a 5 5, 0, 0, 0, 0 -10" transform="rotate(-90,30,200)"/><rect x="25" y="205" width="10" height="10" transform="rotate(0,30,210)"/><path d="M 25 215v 10h 10v -5a 5 5, 0, 0, 0, -5 -5" transform="rotate(180,30,220)"/><circle cx="30" cy="240" r="5" transform="rotate(0,30,240)"/><circle cx="30" cy="280" r="5" transform="rotate(0,30,280)"/><circle cx="30" cy="300" r="5" transform="rotate(0,30,300)"/><path d="M 25 315v 10h 10v -5a 5 5, 0, 0, 0, -5 -5" transform="rotate(-90,30,320)"/><rect x="25" y="325" width="10" height="10" transform="rotate(0,30,330)"/><rect x="25" y="335" width="10" height="10" transform="rotate(0,30,340)"/><rect x="25" y="345" width="10" height="10" transform="rotate(0,30,350)"/><path d="M 25 355v 10h 10v -5a 5 5, 0, 0, 0, -5 -5" transform="rotate(180,30,360)"/><circle cx="30" cy="390" r="5" transform="rotate(0,30,390)"/><path d="M 35 105v 10h 5a 5 5, 0, 0, 0, 0 -10" transform="rotate(180,40,110)"/><path d="M 35 135v 10h 10v -5a 5 5, 0, 0, 0, -5 -5" transform="rotate(0,40,140)"/><path d="M 35 145v 10h 10v -5a 5 5, 0, 0, 0, -5 -5" transform="rotate(180,40,150)"/><rect x="35" y="165" width="10" height="10" transform="rotate(0,40,170)"/><path d="M 35 175v 10h 5a 5 5, 0, 0, 0, 0 -10" transform="rotate(90,40,180)"/><path d="M 35 205v 10h 10v -5a 5 5, 0, 0, 0, -5 -5" transform="rotate(0,40,210)"/><path d="M 35 215v 10h 10v -5a 5 5, 0, 0, 0, -5 -5" transform="rotate(90,40,220)"/><path d="M 35 265v 10h 5a 5 5, 0, 0, 0, 0 -10" transform="rotate(180,40,270)"/><path d="M 35 305v 10h 5a 5 5, 0, 0, 0, 0 -10" transform="rotate(-90,40,310)"/><rect x="35" y="315" width="10" height="10" transform="rotate(0,40,320)"/><rect x="35" y="325" width="10" height="10" transform="rotate(0,40,330)"/><rect x="35" y="335" width="10" height="10" transform="rotate(0,40,340)"/><rect x="35" y="345" width="10" height="10" transform="rotate(0,40,350)"/><path d="M 35 355v 10h 10v -5a 5 5, 0, 0, 0, -5 -5" transform="rotate(90,40,360)"/><path d="M 35 375v 10h 5a 5 5, 0, 0, 0, 0 -10" transform="rotate(180,40,380)"/><path d="M 45 105v 10h 10v -5a 5 5, 0, 0, 0, -5 -5" transform="rotate(0,50,110)"/><rect x="45" y="115" width="10" height="10" transform="rotate(0,50,120)"/><path d="M 45 125v 10h 10v -5a 5 5, 0, 0, 0, -5 -5" transform="rotate(180,50,130)"/><path d="M 45 145v 10h 10v -5a 5 5, 0, 0, 0, -5 -5" transform="rotate(0,50,150)"/><rect x="45" y="155" width="10" height="10" transform="rotate(0,50,160)"/><rect x="45" y="165" width="10" height="10" transform="rotate(0,50,170)"/><path d="M 45 185v 10h 5a 5 5, 0, 0, 0, 0 -10" transform="rotate(-90,50,190)"/><path d="M 45 195v 10h 5a 5 5, 0, 0, 0, 0 -10" transform="rotate(90,50,200)"/><path d="M 45 235v 10h 5a 5 5, 0, 0, 0, 0 -10" transform="rotate(-90,50,240)"/><path d="M 45 245v 10h 5a 5 5, 0, 0, 0, 0 -10" transform="rotate(90,50,250)"/><rect x="45" y="265" width="10" height="10" transform="rotate(0,50,270)"/><path d="M 45 275v 10h 10v -5a 5 5, 0, 0, 0, -5 -5" transform="rotate(180,50,280)"/><rect x="45" y="375" width="10" height="10" transform="rotate(0,50,380)"/><rect x="55" y="115" width="10" height="10" transform="rotate(0,60,120)"/><path d="M 55 125v 10h 10v -5a 5 5, 0, 0, 0, -5 -5" transform="rotate(90,60,130)"/><path d="M 55 155v 10h 10v -5a 5 5, 0, 0, 0, -5 -5" transform="rotate(0,60,160)"/><rect x="55" y="165" width="10" height="10" transform="rotate(0,60,170)"/><path d="M 55 175v 10h 10v -5a 5 5, 0, 0, 0, -5 -5" transform="rotate(180,60,180)"/><path d="M 55 215v 10h 5a 5 5, 0, 0, 0, 0 -10" transform="rotate(180,60,220)"/><path d="M 55 255v 10h 10v -5a 5 5, 0, 0, 0, -5 -5" transform="rotate(-90,60,260)"/><rect x="55" y="265" width="10" height="10" transform="rotate(0,60,270)"/><path d="M 55 275v 10h 10v -5a 5 5, 0, 0, 0, -5 -5" transform="rotate(90,60,280)"/><path d="M 55 355v 10h 5a 5 5, 0, 0, 0, 0 -10" transform="rotate(180,60,360)"/><rect x="55" y="375" width="10" height="10" transform="rotate(0,60,380)"/><path d="M 55 385v 10h 10v -5a 5 5, 0, 0, 0, -5 -5" transform="rotate(180,60,390)"/><path d="M 65 115v 10h 5a 5 5, 0, 0, 0, 0 -10" transform="rotate(0,70,120)"/><rect x="65" y="165" width="10" height="10" transform="rotate(0,70,170)"/><rect x="65" y="175" width="10" height="10" transform="rotate(0,70,180)"/><rect x="65" y="185" width="10" height="10" transform="rotate(0,70,190)"/><path d="M 65 195v 10h 5a 5 5, 0, 0, 0, 0 -10" transform="rotate(90,70,200)"/><path d="M 65 215v 10h 10v -5a 5 5, 0, 0, 0, -5 -5" transform="rotate(0,70,220)"/><rect x="65" y="225" width="10" height="10" transform="rotate(0,70,230)"/><rect x="65" y="235" width="10" height="10" transform="rotate(0,70,240)"/><rect x="65" y="245" width="10" height="10" transform="rotate(0,70,250)"/><rect x="65" y="255" width="10" height="10" transform="rotate(0,70,260)"/><rect x="65" y="265" width="10" height="10" transform="rotate(0,70,270)"/><path d="M 65 285v 10h 5a 5 5, 0, 0, 0, 0 -10" transform="rotate(-90,70,290)"/><rect x="65" y="295" width="10" height="10" transform="rotate(0,70,300)"/><rect x="65" y="305" width="10" height="10" transform="rotate(0,70,310)"/><path d="M 65 315v 10h 10v -5a 5 5, 0, 0, 0, -5 -5" transform="rotate(180,70,320)"/><path d="M 65 335v 10h 10v -5a 5 5, 0, 0, 0, -5 -5" transform="rotate(-90,70,340)"/><rect x="65" y="345" width="10" height="10" transform="rotate(0,70,350)"/><rect x="65" y="355" width="10" height="10" transform="rotate(0,70,360)"/><rect x="65" y="365" width="10" height="10" transform="rotate(0,70,370)"/><rect x="65" y="375" width="10" height="10" transform="rotate(0,70,380)"/><path d="M 65 385v 10h 10v -5a 5 5, 0, 0, 0, -5 -5" transform="rotate(90,70,390)"/><path d="M 75 125v 10h 10v -5a 5 5, 0, 0, 0, -5 -5" transform="rotate(-90,80,130)"/><path d="M 75 135v 10h 5a 5 5, 0, 0, 0, 0 -10" transform="rotate(90,80,140)"/><path d="M 75 155v 10h 5a 5 5, 0, 0, 0, 0 -10" transform="rotate(-90,80,160)"/><rect x="75" y="165" width="10" height="10" transform="rotate(0,80,170)"/><rect x="75" y="175" width="10" height="10" transform="rotate(0,80,180)"/><rect x="75" y="185" width="10" height="10" transform="rotate(0,80,190)"/><path d="M 75 205v 10h 5a 5 5, 0, 0, 0, 0 -10" transform="rotate(180,80,210)"/><rect x="75" y="225" width="10" height="10" transform="rotate(0,80,230)"/><rect x="75" y="265" width="10" height="10" transform="rotate(0,80,270)"/><rect x="75" y="305" width="10" height="10" transform="rotate(0,80,310)"/><rect x="75" y="315" width="10" height="10" transform="rotate(0,80,320)"/><rect x="75" y="325" width="10" height="10" transform="rotate(0,80,330)"/><path d="M 75 335v 10h 10v -5a 5 5, 0, 0, 0, -5 -5" transform="rotate(90,80,340)"/><path d="M 75 355v 10h 5a 5 5, 0, 0, 0, 0 -10" transform="rotate(0,80,360)"/><circle cx="90" cy="110" r="5" transform="rotate(0,90,110)"/><rect x="85" y="125" width="10" height="10" transform="rotate(0,90,130)"/><path d="M 85 145v 10h 5a 5 5, 0, 0, 0, 0 -10" transform="rotate(180,90,150)"/><rect x="85" y="165" width="10" height="10" transform="rotate(0,90,170)"/><rect x="85" y="185" width="10" height="10" transform="rotate(0,90,190)"/><path d="M 85 205v 10h 5a 5 5, 0, 0, 0, 0 -10" transform="rotate(0,90,210)"/><rect x="85" y="225" width="10" height="10" transform="rotate(0,90,230)"/><circle cx="90" cy="250" r="5" transform="rotate(0,90,250)"/><rect x="85" y="265" width="10" height="10" transform="rotate(0,90,270)"/><path d="M 85 285v 10h 5a 5 5, 0, 0, 0, 0 -10" transform="rotate(180,90,290)"/><rect x="85" y="305" width="10" height="10" transform="rotate(0,90,310)"/><rect x="85" y="325" width="10" height="10" transform="rotate(0,90,330)"/><circle cx="90" cy="350" r="5" transform="rotate(0,90,350)"/><circle cx="90" cy="370" r="5" transform="rotate(0,90,370)"/><circle cx="90" cy="390" r="5" transform="rotate(0,90,390)"/><path d="M 95 115v 10h 5a 5 5, 0, 0, 0, 0 -10" transform="rotate(-90,100,120)"/><rect x="95" y="125" width="10" height="10" transform="rotate(0,100,130)"/><rect x="95" y="135" width="10" height="10" transform="rotate(0,100,140)"/><rect x="95" y="145" width="10" height="10" transform="rotate(0,100,150)"/><rect x="95" y="155" width="10" height="10" transform="rotate(0,100,160)"/><rect x="95" y="165" width="10" height="10" transform="rotate(0,100,170)"/><rect x="95" y="175" width="10" height="10" transform="rotate(0,100,180)"/><rect x="95" y="185" width="10" height="10" transform="rotate(0,100,190)"/><rect x="95" y="225" width="10" height="10" transform="rotate(0,100,230)"/><rect x="95" y="265" width="10" height="10" transform="rotate(0,100,270)"/><path d="M 95 285v 10h 10v -5a 5 5, 0, 0, 0, -5 -5" transform="rotate(0,100,290)"/><rect x="95" y="295" width="10" height="10" transform="rotate(0,100,300)"/><rect x="95" y="305" width="10" height="10" transform="rotate(0,100,310)"/><path d="M 95 325v 10h 5a 5 5, 0, 0, 0, 0 -10" transform="rotate(0,100,330)"/><path d="M 95 355v 10h 5a 5 5, 0, 0, 0, 0 -10" transform="rotate(180,100,360)"/><path d="M 105 35v 10h 5a 5 5, 0, 0, 0, 0 -10" transform="rotate(-90,110,40)"/><rect x="105" y="45" width="10" height="10" transform="rotate(0,110,50)"/><path d="M 105 55v 10h 5a 5 5, 0, 0, 0, 0 -10" transform="rotate(90,110,60)"/><path d="M 105 75v 10h 10v -5a 5 5, 0, 0, 0, -5 -5" transform="rotate(-90,110,80)"/><path d="M 105 85v 10h 5a 5 5, 0, 0, 0, 0 -10" transform="rotate(90,110,90)"/><path d="M 105 145v 10h 5a 5 5, 0, 0, 0, 0 -10" transform="rotate(0,110,150)"/><rect x="105" y="165" width="10" height="10" transform="rotate(0,110,170)"/><rect x="105" y="175" width="10" height="10" transform="rotate(0,110,180)"/><rect x="105" y="185" width="10" height="10" transform="rotate(0,110,190)"/><path d="M 105 195v 10h 10v -5a 5 5, 0, 0, 0, -5 -5" transform="rotate(180,110,200)"/><path d="M 105 225v 10h 10v -5a 5 5, 0, 0, 0, -5 -5" transform="rotate(0,110,230)"/><rect x="105" y="235" width="10" height="10" transform="rotate(0,110,240)"/><rect x="105" y="245" width="10" height="10" transform="rotate(0,110,250)"/><rect x="105" y="255" width="10" height="10" transform="rotate(0,110,260)"/><rect x="105" y="265" width="10" height="10" transform="rotate(0,110,270)"/><path d="M 105 275v 10h 10v -5a 5 5, 0, 0, 0, -5 -5" transform="rotate(180,110,280)"/><rect x="105" y="305" width="10" height="10" transform="rotate(0,110,310)"/><path d="M 105 335v 10h 5a 5 5, 0, 0, 0, 0 -10" transform="rotate(180,110,340)"/><path d="M 105 355v 10h 10v -5a 5 5, 0, 0, 0, -5 -5" transform="rotate(0,110,360)"/><path d="M 105 365v 10h 5a 5 5, 0, 0, 0, 0 -10" transform="rotate(90,110,370)"/><path d="M 105 445v 10h 10v -5a 5 5, 0, 0, 0, -5 -5" transform="rotate(-90,110,450)"/><path d="M 105 455v 10h 10v -5a 5 5, 0, 0, 0, -5 -5" transform="rotate(180,110,460)"/><path d="M 115 45v 10h 5a 5 5, 0, 0, 0, 0 -10" transform="rotate(0,120,50)"/><path d="M 115 75v 10h 5a 5 5, 0, 0, 0, 0 -10" transform="rotate(0,120,80)"/><path d="M 115 95v 10h 5a 5 5, 0, 0, 0, 0 -10" transform="rotate(180,120,100)"/><path d="M 115 115v 10h 5a 5 5, 0, 0, 0, 0 -10" transform="rotate(-90,120,120)"/><path d="M 115 125v 10h 10v -5a 5 5, 0, 0, 0, -5 -5" transform="rotate(180,120,130)"/><path d="M 115 165v 10h 10v -5a 5 5, 0, 0, 0, -5 -5" transform="rotate(0,120,170)"/><rect x="115" y="175" width="10" height="10" transform="rotate(0,120,180)"/><rect x="115" y="185" width="10" height="10" transform="rotate(0,120,190)"/><rect x="115" y="195" width="10" height="10" transform="rotate(0,120,200)"/><path d="M 115 205v 10h 10v -5a 5 5, 0, 0, 0, -5 -5" transform="rotate(180,120,210)"/><path d="M 115 255v 10h 5a 5 5, 0, 0, 0, 0 -10" transform="rotate(0,120,260)"/><path d="M 115 275v 10h 5a 5 5, 0, 0, 0, 0 -10" transform="rotate(0,120,280)"/><path d="M 115 295v 10h 5a 5 5, 0, 0, 0, 0 -10" transform="rotate(-90,120,300)"/><rect x="115" y="305" width="10" height="10" transform="rotate(0,120,310)"/><rect x="115" y="315" width="10" height="10" transform="rotate(0,120,320)"/><rect x="115" y="325" width="10" height="10" transform="rotate(0,120,330)"/><rect x="115" y="335" width="10" height="10" transform="rotate(0,120,340)"/><path d="M 115 375v 10h 5a 5 5, 0, 0, 0, 0 -10" transform="rotate(-90,120,380)"/><rect x="115" y="385" width="10" height="10" transform="rotate(0,120,390)"/><path d="M 115 395v 10h 10v -5a 5 5, 0, 0, 0, -5 -5" transform="rotate(180,120,400)"/><path d="M 115 415v 10h 5a 5 5, 0, 0, 0, 0 -10" transform="rotate(180,120,420)"/><path d="M 115 445v 10h 10v -5a 5 5, 0, 0, 0, -5 -5" transform="rotate(0,120,450)"/><rect x="115" y="455" width="10" height="10" transform="rotate(0,120,460)"/><path d="M 115 465v 10h 10v -5a 5 5, 0, 0, 0, -5 -5" transform="rotate(180,120,470)"/><circle cx="130" cy="30" r="5" transform="rotate(0,130,30)"/><path d="M 125 55v 10h 10v -5a 5 5, 0, 0, 0, -5 -5" transform="rotate(-90,130,60)"/><path d="M 125 65v 10h 5a 5 5, 0, 0, 0, 0 -10" transform="rotate(90,130,70)"/><path d="M 125 85v 10h 5a 5 5, 0, 0, 0, 0 -10" transform="rotate(-90,130,90)"/><rect x="125" y="95" width="10" height="10" transform="rotate(0,130,100)"/><path d="M 125 105v 10h 5a 5 5, 0, 0, 0, 0 -10" transform="rotate(90,130,110)"/><rect x="125" y="125" width="10" height="10" transform="rotate(0,130,130)"/><path d="M 125 145v 10h 5a 5 5, 0, 0, 0, 0 -10" transform="rotate(180,130,150)"/><rect x="125" y="205" width="10" height="10" transform="rotate(0,130,210)"/><rect x="125" y="215" width="10" height="10" transform="rotate(0,130,220)"/><rect x="125" y="225" width="10" height="10" transform="rotate(0,130,230)"/><path d="M 125 235v 10h 10v -5a 5 5, 0, 0, 0, -5 -5" transform="rotate(180,130,240)"/><path d="M 125 265v 10h 5a 5 5, 0, 0, 0, 0 -10" transform="rotate(180,130,270)"/><path d="M 125 285v 10h 5a 5 5, 0, 0, 0, 0 -10" transform="rotate(180,130,290)"/><path d="M 125 315v 10h 10v -5a 5 5, 0, 0, 0, -5 -5" transform="rotate(0,130,320)"/><rect x="125" y="325" width="10" height="10" transform="rotate(0,130,330)"/><rect x="125" y="335" width="10" height="10" transform="rotate(0,130,340)"/><path d="M 125 345v 10h 10v -5a 5 5, 0, 0, 0, -5 -5" transform="rotate(180,130,350)"/><circle cx="130" cy="370" r="5" transform="rotate(0,130,370)"/><rect x="125" y="395" width="10" height="10" transform="rotate(0,130,400)"/><path d="M 125 415v 10h 5a 5 5, 0, 0, 0, 0 -10" transform="rotate(0,130,420)"/><path d="M 125 455v 10h 10v -5a 5 5, 0, 0, 0, -5 -5" transform="rotate(0,130,460)"/><rect x="125" y="465" width="10" height="10" transform="rotate(0,130,470)"/><path d="M 135 35v 10h 5a 5 5, 0, 0, 0, 0 -10" transform="rotate(-90,140,40)"/><rect x="135" y="45" width="10" height="10" transform="rotate(0,140,50)"/><rect x="135" y="55" width="10" height="10" transform="rotate(0,140,60)"/><path d="M 135 75v 10h 5a 5 5, 0, 0, 0, 0 -10" transform="rotate(180,140,80)"/><path d="M 135 95v 10h 5a 5 5, 0, 0, 0, 0 -10" transform="rotate(0,140,100)"/><path d="M 135 115v 10h 5a 5 5, 0, 0, 0, 0 -10" transform="rotate(-90,140,120)"/><rect x="135" y="125" width="10" height="10" transform="rotate(0,140,130)"/><path d="M 135 145v 10h 10v -5a 5 5, 0, 0, 0, -5 -5" transform="rotate(0,140,150)"/><rect x="135" y="155" width="10" height="10" transform="rotate(0,140,160)"/><path d="M 135 165v 10h 10v -5a 5 5, 0, 0, 0, -5 -5" transform="rotate(180,140,170)"/><path d="M 135 195v 10h 10v -5a 5 5, 0, 0, 0, -5 -5" transform="rotate(-90,140,200)"/><rect x="135" y="205" width="10" height="10" transform="rotate(0,140,210)"/><path d="M 135 225v 10h 10v -5a 5 5, 0, 0, 0, -5 -5" transform="rotate(0,140,230)"/><path d="M 135 235v 10h 10v -5a 5 5, 0, 0, 0, -5 -5" transform="rotate(90,140,240)"/><path d="M 135 265v 10h 10v -5a 5 5, 0, 0, 0, -5 -5" transform="rotate(0,140,270)"/><rect x="135" y="275" width="10" height="10" transform="rotate(0,140,280)"/><rect x="135" y="285" width="10" height="10" transform="rotate(0,140,290)"/><path d="M 135 295v 10h 10v -5a 5 5, 0, 0, 0, -5 -5" transform="rotate(180,140,300)"/><path d="M 135 345v 10h 10v -5a 5 5, 0, 0, 0, -5 -5" transform="rotate(0,140,350)"/><path d="M 135 355v 10h 10v -5a 5 5, 0, 0, 0, -5 -5" transform="rotate(180,140,360)"/><path d="M 135 375v 10h 10v -5a 5 5, 0, 0, 0, -5 -5" transform="rotate(-90,140,380)"/><rect x="135" y="385" width="10" height="10" transform="rotate(0,140,390)"/><rect x="135" y="395" width="10" height="10" transform="rotate(0,140,400)"/><path d="M 135 425v 10h 5a 5 5, 0, 0, 0, 0 -10" transform="rotate(-90,140,430)"/><path d="M 135 435v 10h 10v -5a 5 5, 0, 0, 0, -5 -5" transform="rotate(180,140,440)"/><rect x="135" y="465" width="10" height="10" transform="rotate(0,140,470)"/><rect x="145" y="45" width="10" height="10" transform="rotate(0,150,50)"/><rect x="145" y="55" width="10" height="10" transform="rotate(0,150,60)"/><rect x="145" y="65" width="10" height="10" transform="rotate(0,150,70)"/><rect x="145" y="75" width="10" height="10" transform="rotate(0,150,80)"/><path d="M 145 85v 10h 5a 5 5, 0, 0, 0, 0 -10" transform="rotate(90,150,90)"/><path d="M 145 105v 10h 5a 5 5, 0, 0, 0, 0 -10" transform="rotate(180,150,110)"/><rect x="145" y="125" width="10" height="10" transform="rotate(0,150,130)"/><rect x="145" y="165" width="10" height="10" transform="rotate(0,150,170)"/><rect x="145" y="195" width="10" height="10" transform="rotate(0,150,200)"/><rect x="145" y="205" width="10" height="10" transform="rotate(0,150,210)"/><path d="M 145 295v 10h 5a 5 5, 0, 0, 0, 0 -10" transform="rotate(0,150,300)"/><rect x="145" y="355" width="10" height="10" transform="rotate(0,150,360)"/><rect x="145" y="365" width="10" height="10" transform="rotate(0,150,370)"/><rect x="145" y="375" width="10" height="10" transform="rotate(0,150,380)"/><path d="M 145 395v 10h 5a 5 5, 0, 0, 0, 0 -10" transform="rotate(0,150,400)"/><circle cx="150" cy="420" r="5" transform="rotate(0,150,420)"/><rect x="145" y="435" width="10" height="10" transform="rotate(0,150,440)"/><path d="M 145 455v 10h 10v -5a 5 5, 0, 0, 0, -5 -5" transform="rotate(-90,150,460)"/><path d="M 145 465v 10h 10v -5a 5 5, 0, 0, 0, -5 -5" transform="rotate(90,150,470)"/><rect x="155" y="45" width="10" height="10" transform="rotate(0,160,50)"/><rect x="155" y="55" width="10" height="10" transform="rotate(0,160,60)"/><rect x="155" y="65" width="10" height="10" transform="rotate(0,160,70)"/><rect x="155" y="75" width="10" height="10" transform="rotate(0,160,80)"/><path d="M 155 95v 10h 5a 5 5, 0, 0, 0, 0 -10" transform="rotate(-90,160,100)"/><rect x="155" y="105" width="10" height="10" transform="rotate(0,160,110)"/><rect x="155" y="115" width="10" height="10" transform="rotate(0,160,120)"/><rect x="155" y="125" width="10" height="10" transform="rotate(0,160,130)"/><rect x="155" y="135" width="10" height="10" transform="rotate(0,160,140)"/><rect x="155" y="145" width="10" height="10" transform="rotate(0,160,150)"/><rect x="155" y="155" width="10" height="10" transform="rotate(0,160,160)"/><rect x="155" y="165" width="10" height="10" transform="rotate(0,160,170)"/><path d="M 155 175v 10h 10v -5a 5 5, 0, 0, 0, -5 -5" transform="rotate(180,160,180)"/><rect x="155" y="195" width="10" height="10" transform="rotate(0,160,200)"/><rect x="155" y="205" width="10" height="10" transform="rotate(0,160,210)"/><path d="M 155 215v 10h 5a 5 5, 0, 0, 0, 0 -10" transform="rotate(90,160,220)"/><path d="M 155 235v 10h 5a 5 5, 0, 0, 0, 0 -10" transform="rotate(180,160,240)"/><path d="M 155 285v 10h 5a 5 5, 0, 0, 0, 0 -10" transform="rotate(180,160,290)"/><path d="M 155 315v 10h 5a 5 5, 0, 0, 0, 0 -10" transform="rotate(180,160,320)"/><path d="M 155 335v 10h 5a 5 5, 0, 0, 0, 0 -10" transform="rotate(-90,160,340)"/><rect x="155" y="345" width="10" height="10" transform="rotate(0,160,350)"/><rect x="155" y="355" width="10" height="10" transform="rotate(0,160,360)"/><rect x="155" y="365" width="10" height="10" transform="rotate(0,160,370)"/><rect x="155" y="375" width="10" height="10" transform="rotate(0,160,380)"/><path d="M 155 405v 10h 5a 5 5, 0, 0, 0, 0 -10" transform="rotate(180,160,410)"/><path d="M 155 425v 10h 5a 5 5, 0, 0, 0, 0 -10" transform="rotate(-90,160,430)"/><path d="M 155 435v 10h 10v -5a 5 5, 0, 0, 0, -5 -5" transform="rotate(90,160,440)"/><rect x="155" y="455" width="10" height="10" transform="rotate(0,160,460)"/><path d="M 165 35v 10h 5a 5 5, 0, 0, 0, 0 -10" transform="rotate(-90,170,40)"/><rect x="165" y="45" width="10" height="10" transform="rotate(0,170,50)"/><path d="M 165 55v 10h 10v -5a 5 5, 0, 0, 0, -5 -5" transform="rotate(90,170,60)"/><path d="M 165 75v 10h 10v -5a 5 5, 0, 0, 0, -5 -5" transform="rotate(0,170,80)"/><path d="M 165 85v 10h 5a 5 5, 0, 0, 0, 0 -10" transform="rotate(90,170,90)"/><rect x="165" y="115" width="10" height="10" transform="rotate(0,170,120)"/><path d="M 165 135v 10h 10v -5a 5 5, 0, 0, 0, -5 -5" transform="rotate(0,170,140)"/><rect x="165" y="145" width="10" height="10" transform="rotate(0,170,150)"/><rect x="165" y="175" width="10" height="10" transform="rotate(0,170,180)"/><rect x="165" y="185" width="10" height="10" transform="rotate(0,170,190)"/><rect x="165" y="195" width="10" height="10" transform="rotate(0,170,200)"/><path d="M 165 235v 10h 10v -5a 5 5, 0, 0, 0, -5 -5" transform="rotate(0,170,240)"/><path d="M 165 245v 10h 10v -5a 5 5, 0, 0, 0, -5 -5" transform="rotate(180,170,250)"/><path d="M 165 275v 10h 5a 5 5, 0, 0, 0, 0 -10" transform="rotate(-90,170,280)"/><rect x="165" y="285" width="10" height="10" transform="rotate(0,170,290)"/><rect x="165" y="315" width="10" height="10" transform="rotate(0,170,320)"/><path d="M 165 325v 10h 10v -5a 5 5, 0, 0, 0, -5 -5" transform="rotate(180,170,330)"/><rect x="165" y="365" width="10" height="10" transform="rotate(0,170,370)"/><rect x="165" y="375" width="10" height="10" transform="rotate(0,170,380)"/><rect x="165" y="405" width="10" height="10" transform="rotate(0,170,410)"/><path d="M 165 415v 10h 5a 5 5, 0, 0, 0, 0 -10" transform="rotate(90,170,420)"/><path d="M 165 445v 10h 10v -5a 5 5, 0, 0, 0, -5 -5" transform="rotate(-90,170,450)"/><rect x="165" y="455" width="10" height="10" transform="rotate(0,170,460)"/><rect x="175" y="115" width="10" height="10" transform="rotate(0,180,120)"/><rect x="175" y="145" width="10" height="10" transform="rotate(0,180,150)"/><rect x="175" y="175" width="10" height="10" transform="rotate(0,180,180)"/><path d="M 175 195v 10h 5a 5 5, 0, 0, 0, 0 -10" transform="rotate(0,180,200)"/><rect x="175" y="245" width="10" height="10" transform="rotate(0,180,250)"/><path d="M 175 255v 10h 5a 5 5, 0, 0, 0, 0 -10" transform="rotate(90,180,260)"/><rect x="175" y="285" width="10" height="10" transform="rotate(0,180,290)"/><rect x="175" y="295" width="10" height="10" transform="rotate(0,180,300)"/><rect x="175" y="305" width="10" height="10" transform="rotate(0,180,310)"/><rect x="175" y="315" width="10" height="10" transform="rotate(0,180,320)"/><path d="M 175 325v 10h 10v -5a 5 5, 0, 0, 0, -5 -5" transform="rotate(90,180,330)"/><path d="M 175 345v 10h 10v -5a 5 5, 0, 0, 0, -5 -5" transform="rotate(-90,180,350)"/><rect x="175" y="355" width="10" height="10" transform="rotate(0,180,360)"/><rect x="175" y="365" width="10" height="10" transform="rotate(0,180,370)"/><rect x="175" y="375" width="10" height="10" transform="rotate(0,180,380)"/><path d="M 175 385v 10h 10v -5a 5 5, 0, 0, 0, -5 -5" transform="rotate(180,180,390)"/><rect x="175" y="405" width="10" height="10" transform="rotate(0,180,410)"/><circle cx="180" cy="430" r="5" transform="rotate(0,180,430)"/><rect x="175" y="445" width="10" height="10" transform="rotate(0,180,450)"/><rect x="175" y="455" width="10" height="10" transform="rotate(0,180,460)"/><path d="M 175 465v 10h 5a 5 5, 0, 0, 0, 0 -10" transform="rotate(90,180,470)"/><path d="M 185 65v 10h 5a 5 5, 0, 0, 0, 0 -10" transform="rotate(180,190,70)"/><circle cx="190" cy="90" r="5" transform="rotate(0,190,90)"/><path d="M 185 105v 10h 5a 5 5, 0, 0, 0, 0 -10" transform="rotate(-90,190,110)"/><path d="M 185 115v 10h 10v -5a 5 5, 0, 0, 0, -5 -5" transform="rotate(90,190,120)"/><path d="M 185 135v 10h 10v -5a 5 5, 0, 0, 0, -5 -5" transform="rotate(-90,190,140)"/><rect x="185" y="145" width="10" height="10" transform="rotate(0,190,150)"/><path d="M 185 155v 10h 10v -5a 5 5, 0, 0, 0, -5 -5" transform="rotate(180,190,160)"/><rect x="185" y="175" width="10" height="10" transform="rotate(0,190,180)"/><path d="M 185 185v 10h 5a 5 5, 0, 0, 0, 0 -10" transform="rotate(90,190,190)"/><path d="M 185 205v 10h 10v -5a 5 5, 0, 0, 0, -5 -5" transform="rotate(-90,190,210)"/><path d="M 185 215v 10h 5a 5 5, 0, 0, 0, 0 -10" transform="rotate(90,190,220)"/><path d="M 185 235v 10h 5a 5 5, 0, 0, 0, 0 -10" transform="rotate(-90,190,240)"/><path d="M 185 245v 10h 10v -5a 5 5, 0, 0, 0, -5 -5" transform="rotate(90,190,250)"/><path d="M 185 265v 10h 10v -5a 5 5, 0, 0, 0, -5 -5" transform="rotate(-90,190,270)"/><rect x="185" y="275" width="10" height="10" transform="rotate(0,190,280)"/><rect x="185" y="285" width="10" height="10" transform="rotate(0,190,290)"/><rect x="185" y="295" width="10" height="10" transform="rotate(0,190,300)"/><path d="M 185 335v 10h 10v -5a 5 5, 0, 0, 0, -5 -5" transform="rotate(-90,190,340)"/><path d="M 185 345v 10h 10v -5a 5 5, 0, 0, 0, -5 -5" transform="rotate(90,190,350)"/><rect x="185" y="365" width="10" height="10" transform="rotate(0,190,370)"/><path d="M 185 385v 10h 5a 5 5, 0, 0, 0, 0 -10" transform="rotate(0,190,390)"/><path d="M 185 405v 10h 10v -5a 5 5, 0, 0, 0, -5 -5" transform="rotate(0,190,410)"/><path d="M 185 415v 10h 5a 5 5, 0, 0, 0, 0 -10" transform="rotate(90,190,420)"/><path d="M 185 445v 10h 10v -5a 5 5, 0, 0, 0, -5 -5" transform="rotate(0,190,450)"/><rect x="185" y="455" width="10" height="10" transform="rotate(0,190,460)"/><rect x="195" y="65" width="10" height="10" transform="rotate(0,200,70)"/><path d="M 195 75v 10h 10v -5a 5 5, 0, 0, 0, -5 -5" transform="rotate(180,200,80)"/><path d="M 195 135v 10h 10v -5a 5 5, 0, 0, 0, -5 -5" transform="rotate(0,200,140)"/><rect x="195" y="145" width="10" height="10" transform="rotate(0,200,150)"/><rect x="195" y="155" width="10" height="10" transform="rotate(0,200,160)"/><rect x="195" y="175" width="10" height="10" transform="rotate(0,200,180)"/><path d="M 195 195v 10h 10v -5a 5 5, 0, 0, 0, -5 -5" transform="rotate(-90,200,200)"/><path d="M 195 205v 10h 10v -5a 5 5, 0, 0, 0, -5 -5" transform="rotate(90,200,210)"/><path d="M 195 255v 10h 5a 5 5, 0, 0, 0, 0 -10" transform="rotate(-90,200,260)"/><rect x="195" y="265" width="10" height="10" transform="rotate(0,200,270)"/><path d="M 195 295v 10h 10v -5a 5 5, 0, 0, 0, -5 -5" transform="rotate(0,200,300)"/><path d="M 195 305v 10h 10v -5a 5 5, 0, 0, 0, -5 -5" transform="rotate(180,200,310)"/><rect x="195" y="335" width="10" height="10" transform="rotate(0,200,340)"/><rect x="195" y="365" width="10" height="10" transform="rotate(0,200,370)"/><circle cx="200" cy="440" r="5" transform="rotate(0,200,440)"/><rect x="195" y="455" width="10" height="10" transform="rotate(0,200,460)"/><path d="M 195 465v 10h 5a 5 5, 0, 0, 0, 0 -10" transform="rotate(90,200,470)"/><circle cx="210" cy="40" r="5" transform="rotate(0,210,40)"/><rect x="205" y="65" width="10" height="10" transform="rotate(0,210,70)"/><rect x="205" y="75" width="10" height="10" transform="rotate(0,210,80)"/><path d="M 205 85v 10h 5a 5 5, 0, 0, 0, 0 -10" transform="rotate(90,210,90)"/><circle cx="210" cy="110" r="5" transform="rotate(0,210,110)"/><path d="M 205 145v 10h 10v -5a 5 5, 0, 0, 0, -5 -5" transform="rotate(0,210,150)"/><path d="M 205 155v 10h 10v -5a 5 5, 0, 0, 0, -5 -5" transform="rotate(90,210,160)"/><path d="M 205 175v 10h 5a 5 5, 0, 0, 0, 0 -10" transform="rotate(0,210,180)"/><path d="M 205 195v 10h 5a 5 5, 0, 0, 0, 0 -10" transform="rotate(0,210,200)"/><path d="M 205 225v 10h 10v -5a 5 5, 0, 0, 0, -5 -5" transform="rotate(-90,210,230)"/><rect x="205" y="235" width="10" height="10" transform="rotate(0,210,240)"/><path d="M 205 245v 10h 5a 5 5, 0, 0, 0, 0 -10" transform="rotate(90,210,250)"/><rect x="205" y="265" width="10" height="10" transform="rotate(0,210,270)"/><circle cx="210" cy="290" r="5" transform="rotate(0,210,290)"/><path d="M 205 305v 10h 10v -5a 5 5, 0, 0, 0, -5 -5" transform="rotate(0,210,310)"/><path d="M 205 315v 10h 5a 5 5, 0, 0, 0, 0 -10" transform="rotate(90,210,320)"/><rect x="205" y="335" width="10" height="10" transform="rotate(0,210,340)"/><rect x="205" y="345" width="10" height="10" transform="rotate(0,210,350)"/><rect x="205" y="355" width="10" height="10" transform="rotate(0,210,360)"/><rect x="205" y="365" width="10" height="10" transform="rotate(0,210,370)"/><path d="M 205 375v 10h 10v -5a 5 5, 0, 0, 0, -5 -5" transform="rotate(180,210,380)"/><path d="M 205 395v 10h 5a 5 5, 0, 0, 0, 0 -10" transform="rotate(-90,210,400)"/><rect x="205" y="405" width="10" height="10" transform="rotate(0,210,410)"/><path d="M 205 415v 10h 5a 5 5, 0, 0, 0, 0 -10" transform="rotate(90,210,420)"/><rect x="205" y="455" width="10" height="10" transform="rotate(0,210,460)"/><path d="M 215 45v 10h 5a 5 5, 0, 0, 0, 0 -10" transform="rotate(-90,220,50)"/><rect x="215" y="55" width="10" height="10" transform="rotate(0,220,60)"/><rect x="215" y="65" width="10" height="10" transform="rotate(0,220,70)"/><rect x="215" y="75" width="10" height="10" transform="rotate(0,220,80)"/><path d="M 215 185v 10h 5a 5 5, 0, 0, 0, 0 -10" transform="rotate(180,220,190)"/><path d="M 215 205v 10h 10v -5a 5 5, 0, 0, 0, -5 -5" transform="rotate(-90,220,210)"/><rect x="215" y="215" width="10" height="10" transform="rotate(0,220,220)"/><rect x="215" y="225" width="10" height="10" transform="rotate(0,220,230)"/><rect x="215" y="265" width="10" height="10" transform="rotate(0,220,270)"/><path d="M 215 275v 10h 10v -5a 5 5, 0, 0, 0, -5 -5" transform="rotate(180,220,280)"/><path d="M 215 325v 10h 10v -5a 5 5, 0, 0, 0, -5 -5" transform="rotate(-90,220,330)"/><rect x="215" y="335" width="10" height="10" transform="rotate(0,220,340)"/><path d="M 215 355v 10h 5a 5 5, 0, 0, 0, 0 -10" transform="rotate(0,220,360)"/><rect x="215" y="375" width="10" height="10" transform="rotate(0,220,380)"/><path d="M 215 425v 10h 5a 5 5, 0, 0, 0, 0 -10" transform="rotate(180,220,430)"/><rect x="215" y="455" width="10" height="10" transform="rotate(0,220,460)"/><path d="M 225 55v 10h 10v -5a 5 5, 0, 0, 0, -5 -5" transform="rotate(0,230,60)"/><rect x="225" y="65" width="10" height="10" transform="rotate(0,230,70)"/><rect x="225" y="75" width="10" height="10" transform="rotate(0,230,80)"/><rect x="225" y="85" width="10" height="10" transform="rotate(0,230,90)"/><rect x="225" y="95" width="10" height="10" transform="rotate(0,230,100)"/><path d="M 225 105v 10h 10v -5a 5 5, 0, 0, 0, -5 -5" transform="rotate(180,230,110)"/><path d="M 225 125v 10h 5a 5 5, 0, 0, 0, 0 -10" transform="rotate(-90,230,130)"/><rect x="225" y="135" width="10" height="10" transform="rotate(0,230,140)"/><path d="M 225 145v 10h 5a 5 5, 0, 0, 0, 0 -10" transform="rotate(90,230,150)"/><path d="M 225 185v 10h 10v -5a 5 5, 0, 0, 0, -5 -5" transform="rotate(0,230,190)"/><rect x="225" y="195" width="10" height="10" transform="rotate(0,230,200)"/><rect x="225" y="205" width="10" height="10" transform="rotate(0,230,210)"/><rect x="225" y="215" width="10" height="10" transform="rotate(0,230,220)"/><rect x="225" y="225" width="10" height="10" transform="rotate(0,230,230)"/><rect x="225" y="235" width="10" height="10" transform="rotate(0,230,240)"/><rect x="225" y="245" width="10" height="10" transform="rotate(0,230,250)"/><rect x="225" y="255" width="10" height="10" transform="rotate(0,230,260)"/><rect x="225" y="265" width="10" height="10" transform="rotate(0,230,270)"/><rect x="225" y="275" width="10" height="10" transform="rotate(0,230,280)"/><rect x="225" y="285" width="10" height="10" transform="rotate(0,230,290)"/><path d="M 225 295v 10h 10v -5a 5 5, 0, 0, 0, -5 -5" transform="rotate(180,230,300)"/><path d="M 225 325v 10h 10v -5a 5 5, 0, 0, 0, -5 -5" transform="rotate(0,230,330)"/><path d="M 225 335v 10h 10v -5a 5 5, 0, 0, 0, -5 -5" transform="rotate(90,230,340)"/><path d="M 225 375v 10h 10v -5a 5 5, 0, 0, 0, -5 -5" transform="rotate(0,230,380)"/><rect x="225" y="385" width="10" height="10" transform="rotate(0,230,390)"/><rect x="225" y="395" width="10" height="10" transform="rotate(0,230,400)"/><rect x="225" y="405" width="10" height="10" transform="rotate(0,230,410)"/><rect x="225" y="415" width="10" height="10" transform="rotate(0,230,420)"/><rect x="225" y="425" width="10" height="10" transform="rotate(0,230,430)"/><path d="M 225 445v 10h 5a 5 5, 0, 0, 0, 0 -10" transform="rotate(-90,230,450)"/><rect x="225" y="455" width="10" height="10" transform="rotate(0,230,460)"/><path d="M 225 465v 10h 10v -5a 5 5, 0, 0, 0, -5 -5" transform="rotate(180,230,470)"/><path d="M 235 25v 10h 10v -5a 5 5, 0, 0, 0, -5 -5" transform="rotate(-90,240,30)"/><path d="M 235 35v 10h 5a 5 5, 0, 0, 0, 0 -10" transform="rotate(90,240,40)"/><rect x="235" y="65" width="10" height="10" transform="rotate(0,240,70)"/><rect x="235" y="105" width="10" height="10" transform="rotate(0,240,110)"/><rect x="235" y="135" width="10" height="10" transform="rotate(0,240,140)"/><path d="M 235 155v 10h 5a 5 5, 0, 0, 0, 0 -10" transform="rotate(-90,240,160)"/><path d="M 235 165v 10h 5a 5 5, 0, 0, 0, 0 -10" transform="rotate(90,240,170)"/><rect x="235" y="215" width="10" height="10" transform="rotate(0,240,220)"/><rect x="235" y="225" width="10" height="10" transform="rotate(0,240,230)"/><rect x="235" y="265" width="10" height="10" transform="rotate(0,240,270)"/><rect x="235" y="275" width="10" height="10" transform="rotate(0,240,280)"/><rect x="235" y="285" width="10" height="10" transform="rotate(0,240,290)"/><rect x="235" y="295" width="10" height="10" transform="rotate(0,240,300)"/><rect x="235" y="305" width="10" height="10" transform="rotate(0,240,310)"/><path d="M 235 315v 10h 10v -5a 5 5, 0, 0, 0, -5 -5" transform="rotate(180,240,320)"/><path d="M 235 355v 10h 5a 5 5, 0, 0, 0, 0 -10" transform="rotate(180,240,360)"/><rect x="235" y="385" width="10" height="10" transform="rotate(0,240,390)"/><rect x="235" y="425" width="10" height="10" transform="rotate(0,240,430)"/><rect x="235" y="465" width="10" height="10" transform="rotate(0,240,470)"/><path d="M 245 25v 10h 5a 5 5, 0, 0, 0, 0 -10" transform="rotate(0,250,30)"/><path d="M 245 45v 10h 10v -5a 5 5, 0, 0, 0, -5 -5" transform="rotate(-90,250,50)"/><rect x="245" y="55" width="10" height="10" transform="rotate(0,250,60)"/><rect x="245" y="65" width="10" height="10" transform="rotate(0,250,70)"/><circle cx="250" cy="90" r="5" transform="rotate(0,250,90)"/><rect x="245" y="105" width="10" height="10" transform="rotate(0,250,110)"/><rect x="245" y="115" width="10" height="10" transform="rotate(0,250,120)"/><rect x="245" y="125" width="10" height="10" transform="rotate(0,250,130)"/><rect x="245" y="135" width="10" height="10" transform="rotate(0,250,140)"/><path d="M 245 145v 10h 5a 5 5, 0, 0, 0, 0 -10" transform="rotate(90,250,150)"/><path d="M 245 175v 10h 10v -5a 5 5, 0, 0, 0, -5 -5" transform="rotate(-90,250,180)"/><path d="M 245 185v 10h 10v -5a 5 5, 0, 0, 0, -5 -5" transform="rotate(180,250,190)"/><path d="M 245 205v 10h 10v -5a 5 5, 0, 0, 0, -5 -5" transform="rotate(-90,250,210)"/><rect x="245" y="215" width="10" height="10" transform="rotate(0,250,220)"/><rect x="245" y="225" width="10" height="10" transform="rotate(0,250,230)"/><circle cx="250" cy="250" r="5" transform="rotate(0,250,250)"/><rect x="245" y="265" width="10" height="10" transform="rotate(0,250,270)"/><path d="M 245 285v 10h 10v -5a 5 5, 0, 0, 0, -5 -5" transform="rotate(0,250,290)"/><rect x="245" y="295" width="10" height="10" transform="rotate(0,250,300)"/><rect x="245" y="305" width="10" height="10" transform="rotate(0,250,310)"/><path d="M 245 315v 10h 10v -5a 5 5, 0, 0, 0, -5 -5" transform="rotate(90,250,320)"/><path d="M 245 345v 10h 10v -5a 5 5, 0, 0, 0, -5 -5" transform="rotate(-90,250,350)"/><rect x="245" y="355" width="10" height="10" transform="rotate(0,250,360)"/><rect x="245" y="365" width="10" height="10" transform="rotate(0,250,370)"/><rect x="245" y="375" width="10" height="10" transform="rotate(0,250,380)"/><rect x="245" y="385" width="10" height="10" transform="rotate(0,250,390)"/><circle cx="250" cy="410" r="5" transform="rotate(0,250,410)"/><rect x="245" y="425" width="10" height="10" transform="rotate(0,250,430)"/><path d="M 245 435v 10h 10v -5a 5 5, 0, 0, 0, -5 -5" transform="rotate(180,250,440)"/><path d="M 245 455v 10h 10v -5a 5 5, 0, 0, 0, -5 -5" transform="rotate(-90,250,460)"/><path d="M 245 465v 10h 10v -5a 5 5, 0, 0, 0, -5 -5" transform="rotate(90,250,470)"/><path d="M 255 45v 10h 10v -5a 5 5, 0, 0, 0, -5 -5" transform="rotate(0,260,50)"/><rect x="255" y="55" width="10" height="10" transform="rotate(0,260,60)"/><rect x="255" y="65" width="10" height="10" transform="rotate(0,260,70)"/><rect x="255" y="105" width="10" height="10" transform="rotate(0,260,110)"/><rect x="255" y="135" width="10" height="10" transform="rotate(0,260,140)"/><rect x="255" y="175" width="10" height="10" transform="rotate(0,260,180)"/><rect x="255" y="185" width="10" height="10" transform="rotate(0,260,190)"/><rect x="255" y="195" width="10" height="10" transform="rotate(0,260,200)"/><rect x="255" y="205" width="10" height="10" transform="rotate(0,260,210)"/><rect x="255" y="215" width="10" height="10" transform="rotate(0,260,220)"/><rect x="255" y="225" width="10" height="10" transform="rotate(0,260,230)"/><rect x="255" y="265" width="10" height="10" transform="rotate(0,260,270)"/><path d="M 255 305v 10h 5a 5 5, 0, 0, 0, 0 -10" transform="rotate(0,260,310)"/><path d="M 255 345v 10h 5a 5 5, 0, 0, 0, 0 -10" transform="rotate(0,260,350)"/><rect x="255" y="385" width="10" height="10" transform="rotate(0,260,390)"/><rect x="255" y="425" width="10" height="10" transform="rotate(0,260,430)"/><rect x="255" y="435" width="10" height="10" transform="rotate(0,260,440)"/><rect x="255" y="455" width="10" height="10" transform="rotate(0,260,460)"/><circle cx="270" cy="40" r="5" transform="rotate(0,270,40)"/><path d="M 265 65v 10h 10v -5a 5 5, 0, 0, 0, -5 -5" transform="rotate(0,270,70)"/><rect x="265" y="75" width="10" height="10" transform="rotate(0,270,80)"/><rect x="265" y="85" width="10" height="10" transform="rotate(0,270,90)"/><rect x="265" y="95" width="10" height="10" transform="rotate(0,270,100)"/><rect x="265" y="105" width="10" height="10" transform="rotate(0,270,110)"/><path d="M 265 115v 10h 10v -5a 5 5, 0, 0, 0, -5 -5" transform="rotate(180,270,120)"/><path d="M 265 135v 10h 5a 5 5, 0, 0, 0, 0 -10" transform="rotate(0,270,140)"/><circle cx="270" cy="160" r="5" transform="rotate(0,270,160)"/><path d="M 265 175v 10h 5a 5 5, 0, 0, 0, 0 -10" transform="rotate(0,270,180)"/><path d="M 265 195v 10h 5a 5 5, 0, 0, 0, 0 -10" transform="rotate(0,270,200)"/><path d="M 265 225v 10h 10v -5a 5 5, 0, 0, 0, -5 -5" transform="rotate(0,270,230)"/><rect x="265" y="235" width="10" height="10" transform="rotate(0,270,240)"/><rect x="265" y="245" width="10" height="10" transform="rotate(0,270,250)"/><rect x="265" y="255" width="10" height="10" transform="rotate(0,270,260)"/><rect x="265" y="265" width="10" height="10" transform="rotate(0,270,270)"/><path d="M 265 275v 10h 5a 5 5, 0, 0, 0, 0 -10" transform="rotate(90,270,280)"/><path d="M 265 315v 10h 10v -5a 5 5, 0, 0, 0, -5 -5" transform="rotate(-90,270,320)"/><rect x="265" y="325" width="10" height="10" transform="rotate(0,270,330)"/><path d="M 265 335v 10h 10v -5a 5 5, 0, 0, 0, -5 -5" transform="rotate(180,270,340)"/><path d="M 265 355v 10h 5a 5 5, 0, 0, 0, 0 -10" transform="rotate(180,270,360)"/><path d="M 265 375v 10h 10v -5a 5 5, 0, 0, 0, -5 -5" transform="rotate(-90,270,380)"/><rect x="265" y="385" width="10" height="10" transform="rotate(0,270,390)"/><rect x="265" y="395" width="10" height="10" transform="rotate(0,270,400)"/><rect x="265" y="405" width="10" height="10" transform="rotate(0,270,410)"/><rect x="265" y="415" width="10" height="10" transform="rotate(0,270,420)"/><rect x="265" y="425" width="10" height="10" transform="rotate(0,270,430)"/><path d="M 265 435v 10h 10v -5a 5 5, 0, 0, 0, -5 -5" transform="rotate(90,270,440)"/><rect x="265" y="455" width="10" height="10" transform="rotate(0,270,460)"/><path d="M 265 465v 10h 5a 5 5, 0, 0, 0, 0 -10" transform="rotate(90,270,470)"/><circle cx="280" cy="60" r="5" transform="rotate(0,280,60)"/><rect x="275" y="115" width="10" height="10" transform="rotate(0,280,120)"/><circle cx="280" cy="170" r="5" transform="rotate(0,280,170)"/><circle cx="280" cy="190" r="5" transform="rotate(0,280,190)"/><path d="M 275 205v 10h 10v -5a 5 5, 0, 0, 0, -5 -5" transform="rotate(-90,280,210)"/><path d="M 275 215v 10h 5a 5 5, 0, 0, 0, 0 -10" transform="rotate(90,280,220)"/><rect x="275" y="235" width="10" height="10" transform="rotate(0,280,240)"/><rect x="275" y="245" width="10" height="10" transform="rotate(0,280,250)"/><rect x="275" y="255" width="10" height="10" transform="rotate(0,280,260)"/><path d="M 275 315v 10h 5a 5 5, 0, 0, 0, 0 -10" transform="rotate(0,280,320)"/><path d="M 275 335v 10h 5a 5 5, 0, 0, 0, 0 -10" transform="rotate(0,280,340)"/><path d="M 275 355v 10h 5a 5 5, 0, 0, 0, 0 -10" transform="rotate(0,280,360)"/><path d="M 275 375v 10h 5a 5 5, 0, 0, 0, 0 -10" transform="rotate(0,280,380)"/><path d="M 275 395v 10h 10v -5a 5 5, 0, 0, 0, -5 -5" transform="rotate(0,280,400)"/><rect x="275" y="405" width="10" height="10" transform="rotate(0,280,410)"/><path d="M 275 415v 10h 10v -5a 5 5, 0, 0, 0, -5 -5" transform="rotate(90,280,420)"/><rect x="275" y="455" width="10" height="10" transform="rotate(0,280,460)"/><path d="M 285 65v 10h 5a 5 5, 0, 0, 0, 0 -10" transform="rotate(-90,290,70)"/><rect x="285" y="75" width="10" height="10" transform="rotate(0,290,80)"/><path d="M 285 85v 10h 5a 5 5, 0, 0, 0, 0 -10" transform="rotate(90,290,90)"/><path d="M 285 105v 10h 10v -5a 5 5, 0, 0, 0, -5 -5" transform="rotate(-90,290,110)"/><rect x="285" y="115" width="10" height="10" transform="rotate(0,290,120)"/><circle cx="290" cy="150" r="5" transform="rotate(0,290,150)"/><path d="M 285 195v 10h 10v -5a 5 5, 0, 0, 0, -5 -5" transform="rotate(-90,290,200)"/><path d="M 285 205v 10h 10v -5a 5 5, 0, 0, 0, -5 -5" transform="rotate(90,290,210)"/><rect x="285" y="235" width="10" height="10" transform="rotate(0,290,240)"/><rect x="285" y="245" width="10" height="10" transform="rotate(0,290,250)"/><rect x="285" y="255" width="10" height="10" transform="rotate(0,290,260)"/><circle cx="290" cy="280" r="5" transform="rotate(0,290,280)"/><path d="M 285 305v 10h 5a 5 5, 0, 0, 0, 0 -10" transform="rotate(180,290,310)"/><circle cx="290" cy="330" r="5" transform="rotate(0,290,330)"/><circle cx="290" cy="350" r="5" transform="rotate(0,290,350)"/><circle cx="290" cy="390" r="5" transform="rotate(0,290,390)"/><circle cx="290" cy="430" r="5" transform="rotate(0,290,430)"/><rect x="285" y="455" width="10" height="10" transform="rotate(0,290,460)"/><path d="M 295 25v 10h 5a 5 5, 0, 0, 0, 0 -10" transform="rotate(-90,300,30)"/><rect x="295" y="35" width="10" height="10" transform="rotate(0,300,40)"/><rect x="295" y="45" width="10" height="10" transform="rotate(0,300,50)"/><path d="M 295 55v 10h 10v -5a 5 5, 0, 0, 0, -5 -5" transform="rotate(180,300,60)"/><path d="M 295 75v 10h 5a 5 5, 0, 0, 0, 0 -10" transform="rotate(0,300,80)"/><rect x="295" y="105" width="10" height="10" transform="rotate(0,300,110)"/><rect x="295" y="115" width="10" height="10" transform="rotate(0,300,120)"/><path d="M 295 135v 10h 5a 5 5, 0, 0, 0, 0 -10" transform="rotate(180,300,140)"/><path d="M 295 155v 10h 10v -5a 5 5, 0, 0, 0, -5 -5" transform="rotate(-90,300,160)"/><rect x="295" y="165" width="10" height="10" transform="rotate(0,300,170)"/><path d="M 295 175v 10h 10v -5a 5 5, 0, 0, 0, -5 -5" transform="rotate(180,300,180)"/><path d="M 295 195v 10h 5a 5 5, 0, 0, 0, 0 -10" transform="rotate(0,300,200)"/><path d="M 295 225v 10h 5a 5 5, 0, 0, 0, 0 -10" transform="rotate(-90,300,230)"/><rect x="295" y="235" width="10" height="10" transform="rotate(0,300,240)"/><rect x="295" y="245" width="10" height="10" transform="rotate(0,300,250)"/><rect x="295" y="255" width="10" height="10" transform="rotate(0,300,260)"/><path d="M 295 265v 10h 10v -5a 5 5, 0, 0, 0, -5 -5" transform="rotate(180,300,270)"/><path d="M 295 295v 10h 10v -5a 5 5, 0, 0, 0, -5 -5" transform="rotate(-90,300,300)"/><path d="M 295 305v 10h 10v -5a 5 5, 0, 0, 0, -5 -5" transform="rotate(90,300,310)"/><circle cx="300" cy="360" r="5" transform="rotate(0,300,360)"/><path d="M 295 375v 10h 5a 5 5, 0, 0, 0, 0 -10" transform="rotate(180,300,380)"/><path d="M 295 405v 10h 5a 5 5, 0, 0, 0, 0 -10" transform="rotate(180,300,410)"/><path d="M 295 445v 10h 10v -5a 5 5, 0, 0, 0, -5 -5" transform="rotate(-90,300,450)"/><rect x="295" y="455" width="10" height="10" transform="rotate(0,300,460)"/><path d="M 305 35v 10h 10v -5a 5 5, 0, 0, 0, -5 -5" transform="rotate(0,310,40)"/><rect x="305" y="45" width="10" height="10" transform="rotate(0,310,50)"/><rect x="305" y="55" width="10" height="10" transform="rotate(0,310,60)"/><path d="M 305 85v 10h 5a 5 5, 0, 0, 0, 0 -10" transform="rotate(-90,310,90)"/><rect x="305" y="95" width="10" height="10" transform="rotate(0,310,100)"/><rect x="305" y="105" width="10" height="10" transform="rotate(0,310,110)"/><rect x="305" y="115" width="10" height="10" transform="rotate(0,310,120)"/><path d="M 305 135v 10h 5a 5 5, 0, 0, 0, 0 -10" transform="rotate(0,310,140)"/><path d="M 305 155v 10h 5a 5 5, 0, 0, 0, 0 -10" transform="rotate(0,310,160)"/><rect x="305" y="175" width="10" height="10" transform="rotate(0,310,180)"/><path d="M 305 185v 10h 5a 5 5, 0, 0, 0, 0 -10" transform="rotate(90,310,190)"/><path d="M 305 205v 10h 10v -5a 5 5, 0, 0, 0, -5 -5" transform="rotate(-90,310,210)"/><path d="M 305 215v 10h 10v -5a 5 5, 0, 0, 0, -5 -5" transform="rotate(180,310,220)"/><path d="M 305 235v 10h 5a 5 5, 0, 0, 0, 0 -10" transform="rotate(0,310,240)"/><rect x="305" y="265" width="10" height="10" transform="rotate(0,310,270)"/><path d="M 305 285v 10h 5a 5 5, 0, 0, 0, 0 -10" transform="rotate(-90,310,290)"/><rect x="305" y="295" width="10" height="10" transform="rotate(0,310,300)"/><path d="M 305 335v 10h 5a 5 5, 0, 0, 0, 0 -10" transform="rotate(180,310,340)"/><path d="M 305 365v 10h 10v -5a 5 5, 0, 0, 0, -5 -5" transform="rotate(-90,310,370)"/><rect x="305" y="375" width="10" height="10" transform="rotate(0,310,380)"/><path d="M 305 385v 10h 5a 5 5, 0, 0, 0, 0 -10" transform="rotate(90,310,390)"/><rect x="305" y="405" width="10" height="10" transform="rotate(0,310,410)"/><rect x="305" y="415" width="10" height="10" transform="rotate(0,310,420)"/><path d="M 305 425v 10h 10v -5a 5 5, 0, 0, 0, -5 -5" transform="rotate(180,310,430)"/><path d="M 305 445v 10h 10v -5a 5 5, 0, 0, 0, -5 -5" transform="rotate(0,310,450)"/><rect x="305" y="455" width="10" height="10" transform="rotate(0,310,460)"/><path d="M 305 465v 10h 10v -5a 5 5, 0, 0, 0, -5 -5" transform="rotate(180,310,470)"/><rect x="315" y="55" width="10" height="10" transform="rotate(0,320,60)"/><circle cx="320" cy="80" r="5" transform="rotate(0,320,80)"/><rect x="315" y="105" width="10" height="10" transform="rotate(0,320,110)"/><rect x="315" y="115" width="10" height="10" transform="rotate(0,320,120)"/><path d="M 315 125v 10h 5a 5 5, 0, 0, 0, 0 -10" transform="rotate(90,320,130)"/><path d="M 315 165v 10h 5a 5 5, 0, 0, 0, 0 -10" transform="rotate(-90,320,170)"/><rect x="315" y="175" width="10" height="10" transform="rotate(0,320,180)"/><path d="M 315 205v 10h 10v -5a 5 5, 0, 0, 0, -5 -5" transform="rotate(0,320,210)"/><rect x="315" y="215" width="10" height="10" transform="rotate(0,320,220)"/><path d="M 315 225v 10h 5a 5 5, 0, 0, 0, 0 -10" transform="rotate(90,320,230)"/><rect x="315" y="265" width="10" height="10" transform="rotate(0,320,270)"/><path d="M 315 275v 10h 5a 5 5, 0, 0, 0, 0 -10" transform="rotate(90,320,280)"/><rect x="315" y="295" width="10" height="10" transform="rotate(0,320,300)"/><path d="M 315 305v 10h 10v -5a 5 5, 0, 0, 0, -5 -5" transform="rotate(180,320,310)"/><rect x="315" y="335" width="10" height="10" transform="rotate(0,320,340)"/><rect x="315" y="345" width="10" height="10" transform="rotate(0,320,350)"/><rect x="315" y="355" width="10" height="10" transform="rotate(0,320,360)"/><path d="M 315 365v 10h 10v -5a 5 5, 0, 0, 0, -5 -5" transform="rotate(90,320,370)"/><path d="M 315 395v 10h 10v -5a 5 5, 0, 0, 0, -5 -5" transform="rotate(-90,320,400)"/><rect x="315" y="405" width="10" height="10" transform="rotate(0,320,410)"/><rect x="315" y="415" width="10" height="10" transform="rotate(0,320,420)"/><rect x="315" y="425" width="10" height="10" transform="rotate(0,320,430)"/><path d="M 315 435v 10h 5a 5 5, 0, 0, 0, 0 -10" transform="rotate(90,320,440)"/><rect x="315" y="455" width="10" height="10" transform="rotate(0,320,460)"/><path d="M 315 465v 10h 10v -5a 5 5, 0, 0, 0, -5 -5" transform="rotate(90,320,470)"/><circle cx="330" cy="40" r="5" transform="rotate(0,330,40)"/><rect x="325" y="55" width="10" height="10" transform="rotate(0,330,60)"/><path d="M 325 65v 10h 5a 5 5, 0, 0, 0, 0 -10" transform="rotate(90,330,70)"/><circle cx="330" cy="90" r="5" transform="rotate(0,330,90)"/><rect x="325" y="105" width="10" height="10" transform="rotate(0,330,110)"/><rect x="325" y="115" width="10" height="10" transform="rotate(0,330,120)"/><path d="M 325 135v 10h 5a 5 5, 0, 0, 0, 0 -10" transform="rotate(-90,330,140)"/><rect x="325" y="145" width="10" height="10" transform="rotate(0,330,150)"/><path d="M 325 155v 10h 5a 5 5, 0, 0, 0, 0 -10" transform="rotate(90,330,160)"/><path d="M 325 175v 10h 5a 5 5, 0, 0, 0, 0 -10" transform="rotate(0,330,180)"/><path d="M 325 215v 10h 5a 5 5, 0, 0, 0, 0 -10" transform="rotate(0,330,220)"/><path d="M 325 235v 10h 10v -5a 5 5, 0, 0, 0, -5 -5" transform="rotate(-90,330,240)"/><path d="M 325 245v 10h 10v -5a 5 5, 0, 0, 0, -5 -5" transform="rotate(180,330,250)"/><path d="M 325 265v 10h 5a 5 5, 0, 0, 0, 0 -10" transform="rotate(0,330,270)"/><rect x="325" y="295" width="10" height="10" transform="rotate(0,330,300)"/><rect x="325" y="305" width="10" height="10" transform="rotate(0,330,310)"/><path d="M 325 315v 10h 5a 5 5, 0, 0, 0, 0 -10" transform="rotate(90,330,320)"/><path d="M 325 335v 10h 10v -5a 5 5, 0, 0, 0, -5 -5" transform="rotate(0,330,340)"/><rect x="325" y="345" width="10" height="10" transform="rotate(0,330,350)"/><path d="M 325 355v 10h 10v -5a 5 5, 0, 0, 0, -5 -5" transform="rotate(90,330,360)"/><path d="M 325 385v 10h 5a 5 5, 0, 0, 0, 0 -10" transform="rotate(-90,330,390)"/><path d="M 325 395v 10h 10v -5a 5 5, 0, 0, 0, -5 -5" transform="rotate(90,330,400)"/><path d="M 325 445v 10h 5a 5 5, 0, 0, 0, 0 -10" transform="rotate(-90,330,450)"/><rect x="325" y="455" width="10" height="10" transform="rotate(0,330,460)"/><circle cx="340" cy="30" r="5" transform="rotate(0,340,30)"/><path d="M 335 45v 10h 10v -5a 5 5, 0, 0, 0, -5 -5" transform="rotate(-90,340,50)"/><path d="M 335 55v 10h 10v -5a 5 5, 0, 0, 0, -5 -5" transform="rotate(90,340,60)"/><path d="M 335 95v 10h 10v -5a 5 5, 0, 0, 0, -5 -5" transform="rotate(-90,340,100)"/><rect x="335" y="105" width="10" height="10" transform="rotate(0,340,110)"/><rect x="335" y="115" width="10" height="10" transform="rotate(0,340,120)"/><path d="M 335 165v 10h 5a 5 5, 0, 0, 0, 0 -10" transform="rotate(180,340,170)"/><circle cx="340" cy="200" r="5" transform="rotate(0,340,200)"/><rect x="335" y="235" width="10" height="10" transform="rotate(0,340,240)"/><rect x="335" y="245" width="10" height="10" transform="rotate(0,340,250)"/><path d="M 335 255v 10h 5a 5 5, 0, 0, 0, 0 -10" transform="rotate(90,340,260)"/><path d="M 335 275v 10h 5a 5 5, 0, 0, 0, 0 -10" transform="rotate(180,340,280)"/><path d="M 335 295v 10h 10v -5a 5 5, 0, 0, 0, -5 -5" transform="rotate(0,340,300)"/><rect x="335" y="305" width="10" height="10" transform="rotate(0,340,310)"/><path d="M 335 325v 10h 5a 5 5, 0, 0, 0, 0 -10" transform="rotate(180,340,330)"/><path d="M 335 415v 10h 5a 5 5, 0, 0, 0, 0 -10" transform="rotate(180,340,420)"/><path d="M 335 455v 10h 10v -5a 5 5, 0, 0, 0, -5 -5" transform="rotate(0,340,460)"/><path d="M 335 465v 10h 10v -5a 5 5, 0, 0, 0, -5 -5" transform="rotate(180,340,470)"/><rect x="345" y="45" width="10" height="10" transform="rotate(0,350,50)"/><path d="M 345 85v 10h 5a 5 5, 0, 0, 0, 0 -10" transform="rotate(-90,350,90)"/><path d="M 345 95v 10h 10v -5a 5 5, 0, 0, 0, -5 -5" transform="rotate(90,350,100)"/><rect x="345" y="115" width="10" height="10" transform="rotate(0,350,120)"/><rect x="345" y="125" width="10" height="10" transform="rotate(0,350,130)"/><rect x="345" y="135" width="10" height="10" transform="rotate(0,350,140)"/><rect x="345" y="145" width="10" height="10" transform="rotate(0,350,150)"/><rect x="345" y="155" width="10" height="10" transform="rotate(0,350,160)"/><rect x="345" y="165" width="10" height="10" transform="rotate(0,350,170)"/><rect x="345" y="175" width="10" height="10" transform="rotate(0,350,180)"/><path d="M 345 185v 10h 5a 5 5, 0, 0, 0, 0 -10" transform="rotate(90,350,190)"/><circle cx="350" cy="210" r="5" transform="rotate(0,350,210)"/><path d="M 345 225v 10h 10v -5a 5 5, 0, 0, 0, -5 -5" transform="rotate(-90,350,230)"/><path d="M 345 235v 10h 10v -5a 5 5, 0, 0, 0, -5 -5" transform="rotate(90,350,240)"/><path d="M 345 275v 10h 10v -5a 5 5, 0, 0, 0, -5 -5" transform="rotate(0,350,280)"/><path d="M 345 285v 10h 5a 5 5, 0, 0, 0, 0 -10" transform="rotate(90,350,290)"/><path d="M 345 305v 10h 10v -5a 5 5, 0, 0, 0, -5 -5" transform="rotate(0,350,310)"/><rect x="345" y="315" width="10" height="10" transform="rotate(0,350,320)"/><rect x="345" y="325" width="10" height="10" transform="rotate(0,350,330)"/><circle cx="350" cy="360" r="5" transform="rotate(0,350,360)"/><path d="M 345 405v 10h 10v -5a 5 5, 0, 0, 0, -5 -5" transform="rotate(-90,350,410)"/><rect x="345" y="415" width="10" height="10" transform="rotate(0,350,420)"/><path d="M 345 445v 10h 5a 5 5, 0, 0, 0, 0 -10" transform="rotate(180,350,450)"/><rect x="345" y="465" width="10" height="10" transform="rotate(0,350,470)"/><path d="M 355 45v 10h 10v -5a 5 5, 0, 0, 0, -5 -5" transform="rotate(0,360,50)"/><path d="M 355 55v 10h 5a 5 5, 0, 0, 0, 0 -10" transform="rotate(90,360,60)"/><circle cx="360" cy="80" r="5" transform="rotate(0,360,80)"/><rect x="355" y="115" width="10" height="10" transform="rotate(0,360,120)"/><rect x="355" y="165" width="10" height="10" transform="rotate(0,360,170)"/><path d="M 355 175v 10h 10v -5a 5 5, 0, 0, 0, -5 -5" transform="rotate(90,360,180)"/><path d="M 355 215v 10h 10v -5a 5 5, 0, 0, 0, -5 -5" transform="rotate(-90,360,220)"/><rect x="355" y="225" width="10" height="10" transform="rotate(0,360,230)"/><rect x="355" y="325" width="10" height="10" transform="rotate(0,360,330)"/><circle cx="360" cy="380" r="5" transform="rotate(0,360,380)"/><path d="M 355 405v 10h 10v -5a 5 5, 0, 0, 0, -5 -5" transform="rotate(0,360,410)"/><rect x="355" y="415" width="10" height="10" transform="rotate(0,360,420)"/><rect x="355" y="445" width="10" height="10" transform="rotate(0,360,450)"/><rect x="355" y="455" width="10" height="10" transform="rotate(0,360,460)"/><rect x="355" y="465" width="10" height="10" transform="rotate(0,360,470)"/><path d="M 365 65v 10h 5a 5 5, 0, 0, 0, 0 -10" transform="rotate(180,370,70)"/><path d="M 365 85v 10h 5a 5 5, 0, 0, 0, 0 -10" transform="rotate(-90,370,90)"/><path d="M 365 95v 10h 5a 5 5, 0, 0, 0, 0 -10" transform="rotate(90,370,100)"/><path d="M 365 115v 10h 5a 5 5, 0, 0, 0, 0 -10" transform="rotate(0,370,120)"/><path d="M 365 135v 10h 5a 5 5, 0, 0, 0, 0 -10" transform="rotate(-90,370,140)"/><path d="M 365 145v 10h 5a 5 5, 0, 0, 0, 0 -10" transform="rotate(90,370,150)"/><path d="M 365 165v 10h 5a 5 5, 0, 0, 0, 0 -10" transform="rotate(0,370,170)"/><path d="M 365 185v 10h 5a 5 5, 0, 0, 0, 0 -10" transform="rotate(180,370,190)"/><rect x="365" y="215" width="10" height="10" transform="rotate(0,370,220)"/><rect x="365" y="225" width="10" height="10" transform="rotate(0,370,230)"/><circle cx="370" cy="250" r="5" transform="rotate(0,370,250)"/><path d="M 365 275v 10h 5a 5 5, 0, 0, 0, 0 -10" transform="rotate(-90,370,280)"/><rect x="365" y="285" width="10" height="10" transform="rotate(0,370,290)"/><path d="M 365 295v 10h 10v -5a 5 5, 0, 0, 0, -5 -5" transform="rotate(180,370,300)"/><path d="M 365 315v 10h 5a 5 5, 0, 0, 0, 0 -10" transform="rotate(-90,370,320)"/><path d="M 365 325v 10h 10v -5a 5 5, 0, 0, 0, -5 -5" transform="rotate(90,370,330)"/><path d="M 365 365v 10h 5a 5 5, 0, 0, 0, 0 -10" transform="rotate(180,370,370)"/><path d="M 365 385v 10h 5a 5 5, 0, 0, 0, 0 -10" transform="rotate(-90,370,390)"/><path d="M 365 395v 10h 10v -5a 5 5, 0, 0, 0, -5 -5" transform="rotate(180,370,400)"/><path d="M 365 415v 10h 5a 5 5, 0, 0, 0, 0 -10" transform="rotate(0,370,420)"/><path d="M 365 435v 10h 10v -5a 5 5, 0, 0, 0, -5 -5" transform="rotate(-90,370,440)"/><path d="M 365 445v 10h 10v -5a 5 5, 0, 0, 0, -5 -5" transform="rotate(90,370,450)"/><path d="M 365 465v 10h 5a 5 5, 0, 0, 0, 0 -10" transform="rotate(0,370,470)"/><path d="M 375 35v 10h 5a 5 5, 0, 0, 0, 0 -10" transform="rotate(-90,380,40)"/><rect x="375" y="45" width="10" height="10" transform="rotate(0,380,50)"/><rect x="375" y="55" width="10" height="10" transform="rotate(0,380,60)"/><rect x="375" y="65" width="10" height="10" transform="rotate(0,380,70)"/><path d="M 375 105v 10h 5a 5 5, 0, 0, 0, 0 -10" transform="rotate(180,380,110)"/><path d="M 375 185v 10h 10v -5a 5 5, 0, 0, 0, -5 -5" transform="rotate(0,380,190)"/><path d="M 375 195v 10h 10v -5a 5 5, 0, 0, 0, -5 -5" transform="rotate(180,380,200)"/><path d="M 375 215v 10h 10v -5a 5 5, 0, 0, 0, -5 -5" transform="rotate(0,380,220)"/><rect x="375" y="225" width="10" height="10" transform="rotate(0,380,230)"/><path d="M 375 235v 10h 10v -5a 5 5, 0, 0, 0, -5 -5" transform="rotate(180,380,240)"/><rect x="375" y="295" width="10" height="10" transform="rotate(0,380,300)"/><path d="M 375 335v 10h 5a 5 5, 0, 0, 0, 0 -10" transform="rotate(-90,380,340)"/><path d="M 375 345v 10h 5a 5 5, 0, 0, 0, 0 -10" transform="rotate(90,380,350)"/><path d="M 375 365v 10h 10v -5a 5 5, 0, 0, 0, -5 -5" transform="rotate(0,380,370)"/><path d="M 375 375v 10h 5a 5 5, 0, 0, 0, 0 -10" transform="rotate(90,380,380)"/><rect x="375" y="395" width="10" height="10" transform="rotate(0,380,400)"/><rect x="375" y="435" width="10" height="10" transform="rotate(0,380,440)"/><circle cx="390" cy="30" r="5" transform="rotate(0,390,30)"/><path d="M 385 55v 10h 10v -5a 5 5, 0, 0, 0, -5 -5" transform="rotate(0,390,60)"/><path d="M 385 65v 10h 10v -5a 5 5, 0, 0, 0, -5 -5" transform="rotate(90,390,70)"/><path d="M 385 85v 10h 5a 5 5, 0, 0, 0, 0 -10" transform="rotate(-90,390,90)"/><rect x="385" y="95" width="10" height="10" transform="rotate(0,390,100)"/><rect x="385" y="105" width="10" height="10" transform="rotate(0,390,110)"/><rect x="385" y="115" width="10" height="10" transform="rotate(0,390,120)"/><rect x="385" y="125" width="10" height="10" transform="rotate(0,390,130)"/><rect x="385" y="135" width="10" height="10" transform="rotate(0,390,140)"/><rect x="385" y="145" width="10" height="10" transform="rotate(0,390,150)"/><path d="M 385 155v 10h 10v -5a 5 5, 0, 0, 0, -5 -5" transform="rotate(180,390,160)"/><path d="M 385 175v 10h 5a 5 5, 0, 0, 0, 0 -10" transform="rotate(180,390,180)"/><rect x="385" y="195" width="10" height="10" transform="rotate(0,390,200)"/><path d="M 385 205v 10h 5a 5 5, 0, 0, 0, 0 -10" transform="rotate(90,390,210)"/><rect x="385" y="225" width="10" height="10" transform="rotate(0,390,230)"/><rect x="385" y="235" width="10" height="10" transform="rotate(0,390,240)"/><rect x="385" y="245" width="10" height="10" transform="rotate(0,390,250)"/><rect x="385" y="255" width="10" height="10" transform="rotate(0,390,260)"/><rect x="385" y="265" width="10" height="10" transform="rotate(0,390,270)"/><path d="M 385 275v 10h 5a 5 5, 0, 0, 0, 0 -10" transform="rotate(90,390,280)"/><rect x="385" y="295" width="10" height="10" transform="rotate(0,390,300)"/><circle cx="390" cy="330" r="5" transform="rotate(0,390,330)"/><path d="M 385 385v 10h 10v -5a 5 5, 0, 0, 0, -5 -5" transform="rotate(-90,390,390)"/><rect x="385" y="395" width="10" height="10" transform="rotate(0,390,400)"/><rect x="385" y="405" width="10" height="10" transform="rotate(0,390,410)"/><rect x="385" y="415" width="10" height="10" transform="rotate(0,390,420)"/><rect x="385" y="425" width="10" height="10" transform="rotate(0,390,430)"/><rect x="385" y="435" width="10" height="10" transform="rotate(0,390,440)"/><circle cx="390" cy="470" r="5" transform="rotate(0,390,470)"/><path d="M 395 105v 10h 5a 5 5, 0, 0, 0, 0 -10" transform="rotate(0,400,110)"/><rect x="395" y="125" width="10" height="10" transform="rotate(0,400,130)"/><rect x="395" y="135" width="10" height="10" transform="rotate(0,400,140)"/><rect x="395" y="145" width="10" height="10" transform="rotate(0,400,150)"/><rect x="395" y="155" width="10" height="10" transform="rotate(0,400,160)"/><rect x="395" y="165" width="10" height="10" transform="rotate(0,400,170)"/><rect x="395" y="175" width="10" height="10" transform="rotate(0,400,180)"/><path d="M 395 195v 10h 5a 5 5, 0, 0, 0, 0 -10" transform="rotate(0,400,200)"/><rect x="395" y="225" width="10" height="10" transform="rotate(0,400,230)"/><rect x="395" y="265" width="10" height="10" transform="rotate(0,400,270)"/><path d="M 395 295v 10h 5a 5 5, 0, 0, 0, 0 -10" transform="rotate(0,400,300)"/><path d="M 395 335v 10h 5a 5 5, 0, 0, 0, 0 -10" transform="rotate(180,400,340)"/><path d="M 395 375v 10h 5a 5 5, 0, 0, 0, 0 -10" transform="rotate(-90,400,380)"/><rect x="395" y="385" width="10" height="10" transform="rotate(0,400,390)"/><rect x="395" y="425" width="10" height="10" transform="rotate(0,400,430)"/><path d="M 395 435v 10h 10v -5a 5 5, 0, 0, 0, -5 -5" transform="rotate(90,400,440)"/><path d="M 405 115v 10h 10v -5a 5 5, 0, 0, 0, -5 -5" transform="rotate(-90,410,120)"/><rect x="405" y="125" width="10" height="10" transform="rotate(0,410,130)"/><path d="M 405 155v 10h 10v -5a 5 5, 0, 0, 0, -5 -5" transform="rotate(0,410,160)"/><rect x="405" y="165" width="10" height="10" transform="rotate(0,410,170)"/><rect x="405" y="175" width="10" height="10" transform="rotate(0,410,180)"/><path d="M 405 185v 10h 5a 5 5, 0, 0, 0, 0 -10" transform="rotate(90,410,190)"/><circle cx="410" cy="210" r="5" transform="rotate(0,410,210)"/><rect x="405" y="225" width="10" height="10" transform="rotate(0,410,230)"/><circle cx="410" cy="250" r="5" transform="rotate(0,410,250)"/><rect x="405" y="265" width="10" height="10" transform="rotate(0,410,270)"/><path d="M 405 285v 10h 5a 5 5, 0, 0, 0, 0 -10" transform="rotate(180,410,290)"/><path d="M 405 325v 10h 10v -5a 5 5, 0, 0, 0, -5 -5" transform="rotate(-90,410,330)"/><path d="M 405 335v 10h 10v -5a 5 5, 0, 0, 0, -5 -5" transform="rotate(90,410,340)"/><path d="M 405 355v 10h 5a 5 5, 0, 0, 0, 0 -10" transform="rotate(-90,410,360)"/><path d="M 405 365v 10h 10v -5a 5 5, 0, 0, 0, -5 -5" transform="rotate(180,410,370)"/><rect x="405" y="385" width="10" height="10" transform="rotate(0,410,390)"/><circle cx="410" cy="410" r="5" transform="rotate(0,410,410)"/><rect x="405" y="425" width="10" height="10" transform="rotate(0,410,430)"/><path d="M 405 455v 10h 5a 5 5, 0, 0, 0, 0 -10" transform="rotate(180,410,460)"/><path d="M 415 105v 10h 5a 5 5, 0, 0, 0, 0 -10" transform="rotate(-90,420,110)"/><rect x="415" y="115" width="10" height="10" transform="rotate(0,420,120)"/><path d="M 415 125v 10h 10v -5a 5 5, 0, 0, 0, -5 -5" transform="rotate(90,420,130)"/><path d="M 415 145v 10h 5a 5 5, 0, 0, 0, 0 -10" transform="rotate(180,420,150)"/><path d="M 415 165v 10h 5a 5 5, 0, 0, 0, 0 -10" transform="rotate(0,420,170)"/><circle cx="420" cy="200" r="5" transform="rotate(0,420,200)"/><rect x="415" y="225" width="10" height="10" transform="rotate(0,420,230)"/><rect x="415" y="265" width="10" height="10" transform="rotate(0,420,270)"/><rect x="415" y="275" width="10" height="10" transform="rotate(0,420,280)"/><rect x="415" y="285" width="10" height="10" transform="rotate(0,420,290)"/><rect x="415" y="295" width="10" height="10" transform="rotate(0,420,300)"/><path d="M 415 305v 10h 5a 5 5, 0, 0, 0, 0 -10" transform="rotate(90,420,310)"/><rect x="415" y="325" width="10" height="10" transform="rotate(0,420,330)"/><path d="M 415 345v 10h 5a 5 5, 0, 0, 0, 0 -10" transform="rotate(180,420,350)"/><rect x="415" y="365" width="10" height="10" transform="rotate(0,420,370)"/><rect x="415" y="375" width="10" height="10" transform="rotate(0,420,380)"/><rect x="415" y="385" width="10" height="10" transform="rotate(0,420,390)"/><rect x="415" y="425" width="10" height="10" transform="rotate(0,420,430)"/><rect x="415" y="435" width="10" height="10" transform="rotate(0,420,440)"/><rect x="415" y="445" width="10" height="10" transform="rotate(0,420,450)"/><rect x="415" y="455" width="10" height="10" transform="rotate(0,420,460)"/><rect x="425" y="115" width="10" height="10" transform="rotate(0,430,120)"/><path d="M 425 135v 10h 5a 5 5, 0, 0, 0, 0 -10" transform="rotate(-90,430,140)"/><rect x="425" y="145" width="10" height="10" transform="rotate(0,430,150)"/><path d="M 425 155v 10h 5a 5 5, 0, 0, 0, 0 -10" transform="rotate(90,430,160)"/><circle cx="430" cy="190" r="5" transform="rotate(0,430,190)"/><path d="M 425 215v 10h 10v -5a 5 5, 0, 0, 0, -5 -5" transform="rotate(-90,430,220)"/><rect x="425" y="225" width="10" height="10" transform="rotate(0,430,230)"/><rect x="425" y="235" width="10" height="10" transform="rotate(0,430,240)"/><rect x="425" y="245" width="10" height="10" transform="rotate(0,430,250)"/><rect x="425" y="255" width="10" height="10" transform="rotate(0,430,260)"/><rect x="425" y="265" width="10" height="10" transform="rotate(0,430,270)"/><path d="M 425 275v 10h 10v -5a 5 5, 0, 0, 0, -5 -5" transform="rotate(90,430,280)"/><path d="M 425 295v 10h 5a 5 5, 0, 0, 0, 0 -10" transform="rotate(0,430,300)"/><path d="M 425 315v 10h 5a 5 5, 0, 0, 0, 0 -10" transform="rotate(-90,430,320)"/><rect x="425" y="325" width="10" height="10" transform="rotate(0,430,330)"/><rect x="425" y="335" width="10" height="10" transform="rotate(0,430,340)"/><rect x="425" y="345" width="10" height="10" transform="rotate(0,430,350)"/><rect x="425" y="355" width="10" height="10" transform="rotate(0,430,360)"/><rect x="425" y="365" width="10" height="10" transform="rotate(0,430,370)"/><rect x="425" y="375" width="10" height="10" transform="rotate(0,430,380)"/><rect x="425" y="385" width="10" height="10" transform="rotate(0,430,390)"/><rect x="425" y="395" width="10" height="10" transform="rotate(0,430,400)"/><rect x="425" y="405" width="10" height="10" transform="rotate(0,430,410)"/><rect x="425" y="415" width="10" height="10" transform="rotate(0,430,420)"/><rect x="425" y="425" width="10" height="10" transform="rotate(0,430,430)"/><rect x="425" y="435" width="10" height="10" transform="rotate(0,430,440)"/><rect x="425" y="445" width="10" height="10" transform="rotate(0,430,450)"/><rect x="425" y="455" width="10" height="10" transform="rotate(0,430,460)"/><path d="M 425 465v 10h 5a 5 5, 0, 0, 0, 0 -10" transform="rotate(90,430,470)"/><path d="M 435 105v 10h 10v -5a 5 5, 0, 0, 0, -5 -5" transform="rotate(-90,440,110)"/><rect x="435" y="115" width="10" height="10" transform="rotate(0,440,120)"/><path d="M 435 125v 10h 10v -5a 5 5, 0, 0, 0, -5 -5" transform="rotate(180,440,130)"/><path d="M 435 145v 10h 5a 5 5, 0, 0, 0, 0 -10" transform="rotate(0,440,150)"/><path d="M 435 195v 10h 10v -5a 5 5, 0, 0, 0, -5 -5" transform="rotate(-90,440,200)"/><rect x="435" y="205" width="10" height="10" transform="rotate(0,440,210)"/><rect x="435" y="215" width="10" height="10" transform="rotate(0,440,220)"/><path d="M 435 235v 10h 10v -5a 5 5, 0, 0, 0, -5 -5" transform="rotate(0,440,240)"/><path d="M 435 245v 10h 10v -5a 5 5, 0, 0, 0, -5 -5" transform="rotate(90,440,250)"/><circle cx="440" cy="290" r="5" transform="rotate(0,440,290)"/><rect x="435" y="365" width="10" height="10" transform="rotate(0,440,370)"/><rect x="435" y="375" width="10" height="10" transform="rotate(0,440,380)"/><rect x="435" y="385" width="10" height="10" transform="rotate(0,440,390)"/><path d="M 435 395v 10h 10v -5a 5 5, 0, 0, 0, -5 -5" transform="rotate(90,440,400)"/><path d="M 435 415v 10h 5a 5 5, 0, 0, 0, 0 -10" transform="rotate(0,440,420)"/><rect x="435" y="435" width="10" height="10" transform="rotate(0,440,440)"/><rect x="435" y="455" width="10" height="10" transform="rotate(0,440,460)"/><rect x="445" y="105" width="10" height="10" transform="rotate(0,450,110)"/><rect x="445" y="115" width="10" height="10" transform="rotate(0,450,120)"/><rect x="445" y="125" width="10" height="10" transform="rotate(0,450,130)"/><path d="M 445 155v 10h 5a 5 5, 0, 0, 0, 0 -10" transform="rotate(-90,450,160)"/><rect x="445" y="165" width="10" height="10" transform="rotate(0,450,170)"/><rect x="445" y="175" width="10" height="10" transform="rotate(0,450,180)"/><rect x="445" y="185" width="10" height="10" transform="rotate(0,450,190)"/><rect x="445" y="195" width="10" height="10" transform="rotate(0,450,200)"/><rect x="445" y="205" width="10" height="10" transform="rotate(0,450,210)"/><rect x="445" y="215" width="10" height="10" transform="rotate(0,450,220)"/><circle cx="450" cy="280" r="5" transform="rotate(0,450,280)"/><path d="M 445 305v 10h 5a 5 5, 0, 0, 0, 0 -10" transform="rotate(-90,450,310)"/><path d="M 445 315v 10h 10v -5a 5 5, 0, 0, 0, -5 -5" transform="rotate(180,450,320)"/><path d="M 445 355v 10h 10v -5a 5 5, 0, 0, 0, -5 -5" transform="rotate(-90,450,360)"/><path d="M 445 365v 10h 10v -5a 5 5, 0, 0, 0, -5 -5" transform="rotate(90,450,370)"/><path d="M 445 385v 10h 5a 5 5, 0, 0, 0, 0 -10" transform="rotate(0,450,390)"/><rect x="445" y="435" width="10" height="10" transform="rotate(0,450,440)"/><rect x="445" y="445" width="10" height="10" transform="rotate(0,450,450)"/><path d="M 445 455v 10h 10v -5a 5 5, 0, 0, 0, -5 -5" transform="rotate(90,450,460)"/><path d="M 455 105v 10h 10v -5a 5 5, 0, 0, 0, -5 -5" transform="rotate(0,460,110)"/><rect x="455" y="115" width="10" height="10" transform="rotate(0,460,120)"/><path d="M 455 125v 10h 10v -5a 5 5, 0, 0, 0, -5 -5" transform="rotate(90,460,130)"/><rect x="455" y="175" width="10" height="10" transform="rotate(0,460,180)"/><path d="M 455 185v 10h 10v -5a 5 5, 0, 0, 0, -5 -5" transform="rotate(90,460,190)"/><path d="M 455 215v 10h 5a 5 5, 0, 0, 0, 0 -10" transform="rotate(0,460,220)"/><circle cx="460" cy="270" r="5" transform="rotate(0,460,270)"/><path d="M 455 285v 10h 5a 5 5, 0, 0, 0, 0 -10" transform="rotate(-90,460,290)"/><path d="M 455 295v 10h 5a 5 5, 0, 0, 0, 0 -10" transform="rotate(90,460,300)"/><rect x="455" y="315" width="10" height="10" transform="rotate(0,460,320)"/><path d="M 455 335v 10h 5a 5 5, 0, 0, 0, 0 -10" transform="rotate(180,460,340)"/><rect x="455" y="355" width="10" height="10" transform="rotate(0,460,360)"/><path d="M 455 395v 10h 5a 5 5, 0, 0, 0, 0 -10" transform="rotate(-90,460,400)"/><path d="M 455 405v 10h 10v -5a 5 5, 0, 0, 0, -5 -5" transform="rotate(180,460,410)"/><path d="M 455 435v 10h 5a 5 5, 0, 0, 0, 0 -10" transform="rotate(0,460,440)"/><circle cx="460" cy="470" r="5" transform="rotate(0,460,470)"/><path d="M 465 115v 10h 5a 5 5, 0, 0, 0, 0 -10" transform="rotate(0,470,120)"/><path d="M 465 135v 10h 5a 5 5, 0, 0, 0, 0 -10" transform="rotate(-90,470,140)"/><path d="M 465 145v 10h 5a 5 5, 0, 0, 0, 0 -10" transform="rotate(90,470,150)"/><path d="M 465 175v 10h 5a 5 5, 0, 0, 0, 0 -10" transform="rotate(0,470,180)"/><circle cx="470" cy="200" r="5" transform="rotate(0,470,200)"/><path d="M 465 225v 10h 5a 5 5, 0, 0, 0, 0 -10" transform="rotate(-90,470,230)"/><path d="M 465 235v 10h 5a 5 5, 0, 0, 0, 0 -10" transform="rotate(90,470,240)"/><circle cx="470" cy="260" r="5" transform="rotate(0,470,260)"/><path d="M 465 305v 10h 5a 5 5, 0, 0, 0, 0 -10" transform="rotate(-90,470,310)"/><path d="M 465 315v 10h 10v -5a 5 5, 0, 0, 0, -5 -5" transform="rotate(90,470,320)"/><path d="M 465 335v 10h 5a 5 5, 0, 0, 0, 0 -10" transform="rotate(0,470,340)"/><path d="M 465 355v 10h 10v -5a 5 5, 0, 0, 0, -5 -5" transform="rotate(0,470,360)"/><rect x="465" y="365" width="10" height="10" transform="rotate(0,470,370)"/><path d="M 465 375v 10h 5a 5 5, 0, 0, 0, 0 -10" transform="rotate(90,470,380)"/><path d="M 465 405v 10h 10v -5a 5 5, 0, 0, 0, -5 -5" transform="rotate(0,470,410)"/><rect x="465" y="415" width="10" height="10" transform="rotate(0,470,420)"/><path d="M 465 425v 10h 5a 5 5, 0, 0, 0, 0 -10" transform="rotate(90,470,430)"/><circle cx="470" cy="450" r="5" transform="rotate(0,470,450)"/></clipPath><clipPath id="clip-path-corners-square-color-0-0"><path clip-rule="evenodd" d="M 25 50v 20a 25 25, 0, 0, 0, 25 25h 20a 25 25, 0, 0, 0, 25 -25v -20a 25 25, 0, 0, 0, -25 -25h -20a 25 25, 0, 0, 0, -25 25M 50 35h 20a 15 15, 0, 0, 1, 15 15v 20a 15 15, 0, 0, 1, -15 15h -20a 15 15, 0, 0, 1, -15 -15v -20a 15 15, 0, 0, 1, 15 -15" transform="rotate(0,60,60)"/></clipPath><clipPath id="clip-path-corners-dot-color-0-0"><rect x="45" y="45" width="30" height="30" transform="rotate(0,60,60)"/></clipPath><clipPath id="clip-path-corners-square-color-1-0"><path clip-rule="evenodd" d="M 405 50v 20a 25 25, 0, 0, 0, 25 25h 20a 25 25, 0, 0, 0, 25 -25v -20a 25 25, 0, 0, 0, -25 -25h -20a 25 25, 0, 0, 0, -25 25M 430 35h 20a 15 15, 0, 0, 1, 15 15v 20a 15 15, 0, 0, 1, -15 15h -20a 15 15, 0, 0, 1, -15 -15v -20a 15 15, 0, 0, 1, 15 -15" transform="rotate(90,440,60)"/></clipPath><clipPath id="clip-path-corners-dot-color-1-0"><rect x="425" y="45" width="30" height="30" transform="rotate(90,440,60)"/></clipPath><clipPath id="clip-path-corners-square-color-0-1"><path clip-rule="evenodd" d="M 25 430v 20a 25 25, 0, 0, 0, 25 25h 20a 25 25, 0, 0, 0, 25 -25v -20a 25 25, 0, 0, 0, -25 -25h -20a 25 25, 0, 0, 0, -25 25M 50 415h 20a 15 15, 0, 0, 1, 15 15v 20a 15 15, 0, 0, 1, -15 15h -20a 15 15, 0, 0, 1, -15 -15v -20a 15 15, 0, 0, 1, 15 -15" transform="rotate(-90,60,440)"/></clipPath><clipPath id="clip-path-corners-dot-color-0-1"><rect x="45" y="425" width="30" height="30" transform="rotate(-90,60,440)"/></clipPath></defs><rect x="0" y="0" height="500" width="500" clip-path="url('#clip-path-background-color')" fill="#fff"/><rect x="0" y="0" height="500" width="500" clip-path="url('#clip-path-dot-color')" fill="#18417E"/><rect x="25" y="25" height="70" width="70" clip-path="url('#clip-path-corners-square-color-0-0')" fill="#18417E"/><rect x="45" y="45" height="30" width="30" clip-path="url('#clip-path-corners-dot-color-0-0')" fill="#18417E"/><rect x="405" y="25" height="70" width="70" clip-path="url('#clip-path-corners-square-color-1-0')" fill="#18417E"/><rect x="425" y="45" height="30" width="30" clip-path="url('#clip-path-corners-dot-color-1-0')" fill="#18417E"/><rect x="25" y="405" height="70" width="70" clip-path="url('#clip-path-corners-square-color-0-1')" fill="#18417E"/><rect x="45" y="425" height="30" width="30" clip-path="url('#clip-path-corners-dot-color-0-1')" fill="#18417E"/></svg>